/* XPM */
static char *_000_F_388350028_gqvKxbe4Yiok8LXACyCq8V9ZlJwOK9Aq__1___1__removebg_preview__1___1_1687271878[] = {
/* columns rows colors chars-per-pixel */
"64 64 179 2 ",
"   c None",
".  c #2F2F2F",
"X  c #353535",
"o  c gray24",
"O  c #3F3F3F",
"+  c gray25",
"@  c #414141",
"#  c gray26",
"$  c #434343",
"%  c gray27",
"&  c #464646",
"*  c gray28",
"=  c #494949",
"-  c gray29",
";  c #4B4B4B",
":  c #4C4C4C",
">  c gray30",
",  c #4E4E4E",
"<  c gray31",
"1  c #505050",
"2  c #515151",
"3  c gray32",
"4  c gray33",
"5  c #555555",
"6  c #565656",
"7  c gray34",
"8  c gray35",
"9  c #5A5A5A",
"0  c #5B5B5B",
"q  c gray36",
"w  c #5D5D5D",
"e  c gray37",
"r  c #5F5F5F",
"t  c #606060",
"y  c gray38",
"u  c #626262",
"i  c gray39",
"p  c #646464",
"a  c gray40",
"s  c #676767",
"d  c #686868",
"f  c DimGray",
"g  c #6A6A6A",
"h  c gray42",
"j  c #6C6C6C",
"k  c #6D6D6D",
"l  c gray43",
"z  c #6F6F6F",
"x  c gray44",
"c  c #717171",
"v  c #727272",
"b  c gray45",
"n  c #747474",
"m  c gray46",
"M  c #767676",
"N  c #777777",
"B  c gray47",
"V  c #797979",
"C  c gray48",
"Z  c #7B7B7B",
"A  c #7C7C7C",
"S  c gray49",
"D  c #7E7E7E",
"F  c gray50",
"G  c #808080",
"H  c #818181",
"J  c gray51",
"K  c #838383",
"L  c #848484",
"P  c gray52",
"I  c #868686",
"U  c gray53",
"Y  c #888888",
"T  c #898989",
"R  c gray54",
"E  c #8B8B8B",
"W  c gray55",
"Q  c #8D8D8D",
"!  c #8E8E8E",
"~  c gray56",
"^  c #909090",
"/  c gray57",
"(  c #929292",
")  c #939393",
"_  c gray58",
"`  c #959595",
"'  c gray59",
"]  c #979797",
"[  c #989898",
"{  c gray60",
"}  c #9A9A9A",
"|  c #9B9B9B",
" . c gray61",
".. c #9D9D9D",
"X. c gray62",
"o. c #9F9F9F",
"O. c #A0A0A0",
"+. c gray63",
"@. c #A2A2A2",
"#. c gray64",
"$. c #A4A4A4",
"%. c #A5A5A5",
"&. c gray65",
"*. c #A7A7A7",
"=. c gray66",
"-. c #A9A9A9",
";. c #AAAAAA",
":. c gray67",
">. c #ACACAC",
",. c gray68",
"<. c #AEAEAE",
"1. c #AFAFAF",
"2. c gray69",
"3. c #B1B1B1",
"4. c #B2B2B2",
"5. c gray70",
"6. c #B4B4B4",
"7. c gray71",
"8. c #B6B6B6",
"9. c #B7B7B7",
"0. c gray72",
"q. c #B9B9B9",
"w. c gray73",
"e. c #BBBBBB",
"r. c #BCBCBC",
"t. c gray74",
"y. c gray",
"u. c gray75",
"i. c #C0C0C0",
"p. c #C1C1C1",
"a. c gray76",
"s. c #C3C3C3",
"d. c gray77",
"f. c #C5C5C5",
"g. c #C6C6C6",
"h. c gray78",
"j. c #C8C8C8",
"k. c gray79",
"l. c #CACACA",
"z. c #CBCBCB",
"x. c gray80",
"c. c #CDCDCD",
"v. c #CECECE",
"b. c gray81",
"n. c #D0D0D0",
"m. c gray82",
"M. c #D2D2D2",
"N. c LightGray",
"B. c gray83",
"V. c #D5D5D5",
"C. c gray84",
"Z. c #D7D7D7",
"A. c #D8D8D8",
"S. c gray85",
"D. c #DADADA",
"F. c gray86",
"G. c gainsboro",
"H. c #DDDDDD",
"J. c gray87",
"K. c #DFDFDF",
"L. c gray88",
"P. c #E1E1E1",
"I. c #E2E2E2",
"U. c gray89",
"Y. c #E4E4E4",
"T. c gray90",
"R. c #E6E6E6",
"E. c #E7E7E7",
"W. c gray91",
"Q. c #E9E9E9",
"!. c #EAEAEA",
"~. c gray92",
"^. c #ECECEC",
"/. c gray93",
"(. c #EEEEEE",
"). c #F1F1F1",
"_. c #F3F3F3",
"`. c #F4F4F4",
"'. c gray96",
/* pixels */
"                                                                                                                                ",
"                                                                                                                                ",
"                                                                                                                                ",
"                                                                                                                                ",
"                                                                                                                                ",
"                                                                                                                                ",
"                                                                                                                                ",
"                                                                                                                                ",
"                                                                                                                                ",
"                                                                                                                                ",
"                                                                                                                                ",
"                                                                                                                                ",
"                                                                                                                                ",
"                                                                                                                                ",
"                                                                                                                                ",
"                                                    9.(.2.J       9.P.n.P                                                       ",
"                                                  h.9.W.1.C       2.P.j.P                                                       ",
"                                                    *.u.D a W [ [ [ q.' d                                                       ",
"                                                    *.h.E J *.;.*.O.u.O.l                                                       ",
"                                                P.D.1.c.[ [ q.9.j.2.i.1.J ;.              n.V.V.D.D.D.J.                        ",
"                                          (.Y.P.D.n.1.n.O.( 2.q.i.1.h.9.P ;.j.n.V.        D.J.P.P.P.Y.P.D.    1.c.(             ",
"                                      _.W.J.c.j.j.c.1.n.*. .i.V.V.2.i.u.P O.9.i.c.V.V.n.  J.P.Y.W.W.W.Y.J.    ' 9.D             ",
"                                  '.(.D.c.j.n.V.V.V.2.V.1.[ i.n.n.2.h.i.E 1.h.h.u.q.i.n.c.J.W.W.(.(.(.(.Y.V.u.1.;.O.1.          ",
"                                J.J.c.j.V.V.D.V.V.V.1.D.2. .u.q.n.9.h.j.P [ 1.9.9.2.*.O.2.J.Y.W.(.(.W.W.P.V.u.2.1.2.9.          ",
"                            '.D.2.i.V.D.V.V.V.V.c.q.1.D.9.' 9.u.h.1.h.j.C d P E E E E P E n.P.P.Y.W.Y.P.D.c.q.9.;.9.9.          ",
"                          _.W.n.h.V.D.V.D.V.D.D.n.h.;.D.2.W ;.q.q.*.j.c.l v P W ( [ [  .2.D.J.J.P.P.Y.P.D.i.2.O.O.O.1.          ",
"                        (.W.c.j.D.V.n.n.h.D.V.c.i.h.;.D.9.[ u.c.j.2.h.c.v ' ;.2.9.i.j.c.V.D.J.J.P.P.P.J.n.    W 2.D             ",
"                        Y.c.h.V.n.n.D.n.h.c.h.j.n.n.1.V.2.( 9.i.i.;.i.j.v ' 1.9.q.h.j.n.V.D.J.J.P.Y.P.P.V.      u.J             ",
"                      P.n.u.n.c.c.n.V.D.c.j.n.D.V.c.;.c.h.u.c.n.V.j.c.i.v ( O.;.;.2.q.i.c.D.J.P.P.Y.Y.P.V.                      ",
"                    D.n.u.h.j.h.c.V.V.j.j.V.D.n.j.c.n.D.D.J.J.V.P.Y.P.W.i.W D D M l t w D V.J.P.P.Y.Y.Y.D.                      ",
"                    n.h.9.h.i.h.h.h.j.i.n.V.c.h.n.D.P.J.V.V.c.j.c.n.V.W._.P.*.W E M t , d c.P.P.Y.Y.Y.Y.D.                      ",
"                  h.j.q.q.i.q.h.q.u.u.h.j.j.u.n.Y.D.J.n.q.O.[ [  .;.u.j.c.P.(.9.*.( l 5 d n.P.Y.Y.Y.Y.Y.n.                      ",
"                  i.u.2.q.9.q.i.i.u.q.i.i.9.i.P.Y.J.j.[ P ( *.;.1.;.[ 1.u.h.J.D.;.' M 0 d n.P.P.Y.W.Y.W.c.                      ",
"                  q.q.1.q.1.q.u.u.2.9.q.9.;.D.P.P.n.[ E O.2.9.2.i.c.u.( 1.1.q.V.9.W C t v c.P.P.Y.Y.Y.Y.c.                      ",
"                  u.q.;.9.;.q.q.q.1.2.9.;.;.P.W.P.9.D ( *.1.;.*.9.i.h.[ ' ;.*.i.9.P D d v n.J.J.P.Y.Y.W.j.O.                    ",
"                  u.*.O.2.*.9.1.1.*.1.1.O.*.J.J.D.1.J  .1.*.' ' O.1.2.*.( *.( ;.;.J D d v j.J.J.P.P.P.P.i.W                     ",
"                  1.;.O.1.O.2.;.1.*.;.;.O.[ J.Y.D.9.P [ ;.[ P E '  .O.[ O.( E *. .J D l v j.D.D.D.J.J.J.i.O.                    ",
"                  1.1. .1.O.1.1.1.*.*.;.*.W h.n.c.9.O.W v d J E W ' ' O. .C W O.E J J l v h.n.D.V.D.D.D.i.                      ",
"                  ;.1. .;.O.O.1.;.;.O.;.O.'  .h.i.9.O.*.W D E W (  .;.' v D [ ' C P J l l i.n.n.n.V.n.V.u.                      ",
"                    1.O. .;. .1.q.1.O.*.*.O.E  .q.2. .W ( [ O.O. .( M l D ( ' M C P C d l u.j.c.c.c.n.c.i.                      ",
"                    ;.;.' *. .;.;.O.*.O.O.*.' P E  .*.[ W C v v l v C J W J d l J D l a d q.h.j.j.j.j.j.u.                      ",
"                    *.;. .' ;.[ *.*.*.*.O.O. .' D M P ' ( W W E P P W J t a C P P E P J ( q.i.i.h.i.i.i.q.                      ",
"                      ;.;.(  .*.[ ;.*.*.*. .' ( W J v E l 0 t a t d J M 2 E [ O.O.;.1.2.9.9.q.q.q.u.u.u.9.                      ",
"                        *.O.W O. . .O.9.O.[ ( W P P P *.l + & & = d [ W 0 E '  . .O.*.;.;.1.1.1.1.9.q.q.2.                      ",
"                          *. .W [  .' [ ' ' ( E J C P 1.M , , 2 2 M *.' 2 D ( ( ( [ [ [ O.*.*.;.;.1.2.2.;.                      ",
"                            O. .( ' [ ( W ( W P E W E 1.C = , , = M *.( , ,       w & & t [ O.*.;.*.;.1.*.                      ",
"                              9.*.P P W W P J D W W E 2.C , w t 2 M ;.( w w     & O X . & ( O.*.*.O.*.*.O.    ;.j.(             ",
"                                ( ' W J D J D C v v P 2.C , t w , M 1.' 2 5 0 0 2 & O + , ( O.O. . .O.*.O.    E ;.D             ",
"                                    W W J C v v v v E 9.C = = = & M 2.[ 5 5 0 0 5 2 & + , ( [ [  . . .O.*. .( W P [ O.          ",
"                                        J D M v d l W q.D , = = = D 9.[ 5 5 0 0 2 = +     ( ' ' [ [  . .O. .( ( P  .;.          ",
"                                            v l d v ( u.J , w t = P q.[ 5 , = =           ( ' ' ' ' [  . . .( W J  .;.          ",
"                                                    [ i.E          .q. .w                       ( (           E W W             ",
"                                                     .q.D         ' 2.(                                       ( 9.P             ",
"                                                     .i.J         E 9.' 0                                       9.              ",
"                                                  2.*.J.O.d       ' j.2.w                                                       ",
"                                                                                                                                ",
"                                                                                                                                ",
"                                                                                                                                ",
"                                                                                                                                ",
"                                                                                                                                ",
"                                                                                                                                ",
"                                                                                                                                ",
"                                                                                                                                ",
"                                                                                                                                "
};
