/* XPM */
static char *_kmaMc_removebg_preview1687203683[] = {
/* columns rows colors chars-per-pixel */
"111 136 81 1 ",
"  c None",
". c #080302",
"X c #100903",
"o c #140E0B",
"O c #1D140F",
"+ c #161116",
"@ c #1D1718",
"# c #1F1A1F",
"$ c #231A16",
"% c #251F1E",
"& c #2F2118",
"* c #231D24",
"= c #292323",
"- c #26202A",
"; c #2B262B",
": c #2F2A2F",
"> c #322823",
", c #3C2A23",
"< c #362D2C",
"1 c #2D2735",
"2 c #332E38",
"3 c #3C3330",
"4 c #3C3639",
"5 c #442D25",
"6 c #4B342C",
"7 c #5C3B2D",
"8 c #433A38",
"9 c #503830",
"0 c #523C35",
"q c #5D3F32",
"w c #414429",
"e c #555A2B",
"r c #57433C",
"t c #624234",
"y c #6B4638",
"u c #734C3D",
"i c #353141",
"p c #3A3747",
"a c #413C46",
"s c #3A4055",
"d c #494242",
"f c #524948",
"g c #5C504C",
"h c #494455",
"j c #5D5655",
"k c #614940",
"l c #66524A",
"z c #795142",
"x c #7C5B4D",
"c c #685C56",
"v c #777A49",
"b c #464D61",
"n c #534C60",
"m c #50566B",
"M c #565E76",
"N c #605C6B",
"B c #5C637A",
"V c #6B6765",
"C c #76716F",
"Z c #62687C",
"A c #929468",
"S c #656D83",
"D c #6A7286",
"F c #6E778E",
"G c #757783",
"H c #777F91",
"J c #5652A7",
"K c #818186",
"L c #9A948E",
"P c #818797",
"I c #8A909E",
"U c #ABA89A",
"Y c #9499A6",
"T c #9EA3AE",
"R c #A9ADB7",
"E c #B3B6BE",
"W c #C0BCB7",
"Q c #CDC9B3",
"! c #BBBEC5",
"~ c #C3C5CD",
"^ c #CACDD4",
/* pixels */
"                                                                                                               ",
"                                                                                                               ",
"                                                                                                               ",
"                                                                                                               ",
"                                                                                                               ",
"                                                                                                               ",
"                                                                                                               ",
"                                                                                                               ",
"                                                                                                               ",
"                                                                                                               ",
"                                                                                                               ",
"                                                                                                               ",
"                                                                                                               ",
"                                                                                                               ",
"                                                                                                               ",
"                                                                                                               ",
"                                                                                                               ",
"                                                                                                               ",
"                                                                                                               ",
"                                                                                                               ",
"                                                                                                               ",
"                                         EC;                                                                   ",
"                                         EC-                                                                   ",
"                                         Ih+J                                                                  ",
"                                        In2aJ                                                                  ",
"                                    JJDKKGNGYTYJJJJJJ                                                          ",
"                              JJPPPIPDZDHIYTRERYHZGITE^R                                                       ",
"                            JYIPPPPPPDNMHIYR!~ETPZBGYR!^^R                                                     ",
"                         JJETTYIPHPPPFMmZPYR~^~EYHZZHYE~^^R                                                    ",
"                         JEEEETIPHHHPHZmMHIT!^^~RYFZZPTE~^^RJ                                                  ",
"                         JRE~!EYPHHHHHFmmDPYR~^^!TIFBZPTE!~^RJ                                                 ",
"                         JY!^^!TIHHFHHHZbBFPYE~^^ETPSMZPTE!~^RJ                                                ",
"                         JTE^^~TIHHFFHHSmmSHITE^^~RYHZmZPTE!~^RJ                                               ",
"                         JTR^^~RYHFFFFHFBbmDHIR!^^!RIFBmZPTE!~^RJ                                              ",
"                         JTR~^^EYPHFFFFHFNbMFPYR~^^ETIFMmSPTR!~^RJ                                             ",
"                         JYT!^^EYPGFDFFFHSmbZFPYE~^~RYPSmmSPYRE!^RJ                                            ",
"                         JJTE^^!TPHFDFFFHFBbmSHIT!^^!RIHBbmSHYRE!~RJ                                           ",
"                          JYR~^~RIHFFFFFFHDmbMDHIT!^^ETIGMbmSPIRE!~RJ                                          ",
"                          JYR!^^RYHFDDDDFFFSbbBFPYR~^~RYPDmbmSHITE!!RJ                                         ",
"                          JYT!^^EYHFSSSSDDFFMhmBFPYE~^!RIHZmbmZHITE!!RJ                                        ",
"                          JITE^^!YHFSSSSSDDFSbbmSFIT!^^!TIFZbsbZHITE!!RJ                                       ",
"                           IYR~^~TPFSSSZSSSDDBbbMSFIR!^~EYPGBbsbBFPTEE!RJ                                      ",
"                           JIR~^~RIFSSBZZZSDDSmsbBDHYR~^~RYHDmssbZFPYREER                                      ",
"                            IT!^~RIHSZBZZZSSDDBssMSDPTE~^!TIHSmssmSFPYRE!R                                     ",
"                            IYE~^EYHDZBBBZZSSSSmsbBSFIT!^~EYPFZbpsmSFPYREER                                    ",
"                            PYR~^!TPDZBBBBZZSSDZbsmZDHYR!^~RYPDBbisMSFPYREE!                                   ",
"                            PIT!^~TPFSBBBBBZZSSDmpsMZDHYE~^!TIHSMsssMZFPYREE!                                  ",
"                            KITE^~RIFSBBBBBBZZZSBsibBZGPTE~~EYPDZMsisMZFHYREEE                                 ",
"                            JPYE~^EYFSBBMMBBBZZZZmiimZSGIR!^!RIHSBmspsmBDHYREEE                                ",
"                            JPIR~^!YHSBBMMMBMBZZSBs2sNZSHIR!~EYHDZBmsismBDHIREWE                               ",
"                            JKIT!^!TPDBMMMMMMBBBZZmi2bMZSHYRERYHDZBMbsismMSHYTEER                              ",
"                            JKPTE^~RPFBBMMMMMMMBZZBs1pmBBSHIYYPGSZZZBbpisbMSFITRRT                             ",
"                            JKPYE~~EIFSMMMMMMMMMBBZmp1smNBDKPHGZNNmmmmbiisbmBDPIYII                            ",
"                             KKIR~^EYHZMMMMMMMMMMBZZb1imBNnhsspii112ihmmbbbbssbNBZGKI                          ",
"                             KKIT!^!THSBMMMMmbsbbbshpismmnbbmNmmmmnmnhhhpphmbmZSDGGKKY                         ",
"                             JKPTE^~TPDBBMmspbMBZNMNmniphsabY~TYIKGZNhaphphNZBmnnmNZGPY                        ",
"                              KKYE~~RIFZmsphNNnnhpphnnahnNNNNNNNNNnnnNNNNZNh1-**-11phNGI                       ",
"                              GKIR~~EYGmhhnhpi1--*---1ipnNZZNNNNjNjnjjNNNnh-+++++###*-iNK                      ",
"                              GGPTE!EINnhhi-**#****#@++*ia2211:;%%=%$@#@+++@##@######+#-hK                     ",
"                              GGPYRERKNnp-*#---*-===###@-#......X&ww>o.....+##%%#***##+#*4C                    ",
"                              GGKPYYPGNa-***--;::<<>=###*#ooXoo$evAAAv8oooo+==;<:;*-*#@##*2C                   ",
"                              JGGHPKGnp1*---114affd8<=*##@ooO$OwvveevvC8@++@;3dffd3;=###-;*4                   ",
"                               GGGZVNa1--*-;14hjCVVjd3=*#@+@;>OwAUUAAUA3@@+%4fcCCVj8<*#**--*a                  ",
"                               GSZNNa1--**-;2dcKLULKcd<;###;4:oOrAQQQLc$o@+@8CLUULCj4=##*##*;f                 ",
"                               GVZNh1--**#*;3fCLWWWUKja:*+#2i:%XX$3k,&oo@*#@3LWWWUKj8;%####**4                 ",
"                               GNNNp1-*-##*;<fCLRWWUKVf4#+-:;;*#+oXXXXo+%%*@=LWWULCf3=**####=;d                ",
"                               GNZhi1--***-:3dVKLUUKCVj4@o#;=##@######*#*=##$jKKCVf3>%%%%#@%==3                ",
"                               GCNa1--**#*=:28fcVCCVjfd;+o*;=-*##*******:a;#%%dff8<=%%%%%@#%*=<                ",
"                                Cni11-###**=:24dfffdd4:#+@==%;=***---1-;24:%%#3a4;*%%%##%##%%=<3               ",
"                                Vh21;*######*;244p44::;#@#*#%;==---1111221**##;d2##***#$$#%%=%>$               ",
"                                Na2;;**######*::::1;;1;##*--:2;---1112iii2;#@@#24*+@#*####%%%%=$               ",
"                                V2:;-==*##@##*-;;;;--;-*#-12aai111;1122ipi41--*-4a2-#@#%#$#@@$%$               ",
"                                C2=;===*%%####*---12:;-*12papppi1111222paahaaa42;;:;:=+##$$$@$%$               ",
"                                K:%%%%%%%%%%##**-:::::2adaappppiii2222iaaaaaahhf443:;=@O$@$$$O@$               ",
"                                 >@@$$$$%%$$%%@%:<<dgjjjg<<iiiiiii2222ia4aCVNafjjcjd3<$XoOOOOoO$               ",
"                                 <OOOOO@O@$@$$$=:>fcccccc4*11iiiii2i2iapa4nh24ddjccfd8>+.Xooooo$               ",
"                                 8oOOoooooOoOO%><dccllllcf=-2iphsp222iaa4ij:*ad8dgcgr38<$.ooXoO$               ",
"                                 gXooooXoXooXX&<dcclllllcj:*2phnhai224i422h;#4ha8fccf083>.XXXoO                ",
"                                  ooooXXXXXXXX&3gclllllllc8*2phnnhpi2ii421h=@:dp4dgckr88>X.XXo@                ",
"                                  =XoXXXXXXXXX&8gllllkkkllf;;ihnnbpp222i2;4@o;a448dclr08&X.XXo%                ",
"                                  gXoXXXXXXXXX&0gggglkkkkgg3-2ihnnhpi2222;=+o-ap443glgr9<o.XXO                 ",
"                                   %XXXXXXXX.X&dggklkkkkkkgd;1phnnhaii224;;@+=p42<>dllr03O.Xo%                 ",
"                                   cXXXXXX....&fggkkkkkkkkkf<;ihnnnhpii22;*oo*pi:=>3gllr8$..o                  ",
"                                    d.XXXX.X..&flglllkkkkkkr8;2hnnnhpi1::;#++;a2;==>rllkd>..                   ",
"                                     3.XXXXXX.>glllxzlkktkkrk<>annnhi1111:22224a2;%>8llk0<@                    ",
"                                      >.XoXX..>gclxxxxuykkttr0=2hnnhp21112222:2i2;%&<lllr33                    ",
"                                       <.XXX.X>gccxxxxukytrqrr<>ahnnai21122222222:==>rlkk88                    ",
"                                        ;o....>jccxxxxzyktq7qk8=3hnnh421;112222221*%<8llk08                    ",
"                                        d:#oXo<lccxxxxzuytq7qrr<;ahnhp:-**-12222;-*@%>klgr8                    ",
"                                        f4a<=&3gllxxxxzuyqq77rk6=<dha4:;-*-::222:*#@$&0llk8                    ",
"                                        daa8848glllxxxxuytq77qkd>>ahha<;;;;;1:2<:*#@@$6kkk8                    ",
"                                         d88438glllzxxzuytq77qtr3=<dhd4::::::::::=#@@$>kkkd                    ",
"                                         d88333fjllzxxxuytq77qqr0>>4dha42::<<<<:<;*#@O&rlkr8                   ",
"                                         d88338fglkzzxzzytq77qqrr<>4dfd42::::32442;#@O$6kkr8                   ",
"                                         d88838flkkkzzzzuyq77qqtk9>3dhf4;;:4fffdfd:%#@O,kkr3                   ",
"                                         d88338fgkkkuzxzuyt77qqqrr,<dff4:;4d844444<;%$O&rkr63                  ",
"                                          48433fgfkkuzzzuytq77qqqr3,8ffa2:34<388ddd8:%$&rkk9<                  ",
"                                          44838fgrrkyzzzuytqq77qqr6>8fhfa:38ddddddff4=$$9kk03                  ",
"                                          88433fgrrryuzzzuyt777q7q0>3dffa4:488ffgjgf3$OO5kk033                 ",
"                                          d8838fgrrrtuzzzuytq7777qr5>4fhd4:3fjVCCCCc8%O$>kkq63                 ",
"                                           4833fgrrrtyzzzuytqq777qr6><dhd4:3gVVcVVCVf#OO&qkr9<                 ",
"                                           8438fgrr0qyuzzuyttq777qrr>>8hd833fCCCcjcVg%O$$9kt033                ",
"                                           d433fgrr0qtuzzzuytq7q77qr3>3ddd438jVcgddfd=OOO5kk06<                ",
"                                           d438fgr000tyuzzuytq777qqr6=<8fd4<48dd833>3=@OO5kkr6<                ",
"                                           f333fgr000qyuzzuuyq777qqqr,>4dd833333dd83<=$OO,rtr6><               ",
"                                            8<4fgr000qtuuuzuyt77777qq6>5dfd43<>=<<33>=@OO&0kt9>>               ",
"                                            8<3fgr0000tyuuzzyt777777q9>>8ffd<>=$O$=><%OOO$0kt93>               ",
"                                            d33fgr0999qtyuzzyt77777770,>8fgf8<<=%%%=>=$OO$9kr05>               ",
"                                            f33fgr0999qtyuuzut7777777r6&3fgfd4>%==&==$@OO$5tt95><              ",
"                                             43fgr09999qyuuzut7777777q0,,8ffa3=%$$$%$@OOO$,qt75>>              ",
"                                             83fgr09999qtyuuuy7777777qr6>3dd8<=%$%=$@OOOOO&9t76,>              ",
"                                             d3fgf099997tyuuuyt7777777q6>,8dd43<<<3<>=$@OO&6t76,,<             ",
"                                             d3fgf0966997yuzuyt7777777q0,,3ddd4<<3833>%OoO$6qq6,,<             ",
"                                              8fgr0969697tyuuuyt777777qq6,58dd3<>3dd8>%OoO$5tq95><             ",
"                                              dfgfr966997qyuzuyt777777qq0,,3dd83<8ffd<%OoOO5qq95>>             ",
"                                              ffgf0966669qyyuzut7777777qq6,>48d838ggd3%+oOO,7t75>>>            ",
"                                              ffgf09966697tyuzuyt7777777q6,&<8ddddjjg4=@oOO,9q75,>>            ",
"                                               fgrr9666667tyuzzytq77777770,&>8fddfjjg8;@oOO&9tq6,>>            ",
"                                               ggfr9966669qyuzzutt7777777q5,>4ddddfgf4=@+OO&9tq9,&>            ",
"                                               jgfr99666697tuzzuyq7777777q95,<8888884:@+OO$&6tq75,>=           ",
"                                                ggr96666667tyzzuyt777777770,,>33<<<<;%+o+OO$5qt95>>>           ",
"                                                gfr99666667tyzzzyy7777777776>&>;;;==%@+o+OOO5qq75,>>           ",
"                                                ggr966666697yuzzuy7777777776&$$%%%%##@@@@$OO57t75,,<           ",
"                                                ggr066665697tuzzuyt777777779,oXOO@#$$@$$$$$O57t765,38          ",
"                                                jfr096666667tyuzuyt77777777q9,o.XO&=>>&$OOX&7tq795,3d          ",
"                                                 gf099666669tyuuuyt777777777q75O...ooOoX.XO7ttq77556f          ",
"                                                                                                               ",
"                                                                                                               ",
"                                                                                                               ",
"                                                                                                               ",
"                                                                                                               ",
"                                                                                                               ",
"                                                                                                               ",
"                                                                                                               ",
"                                                                                                               ",
"                                                                                                               "
};
