/* XPM */
static char *doorSlidingSprite__2___1_1687275943[] = {
/* columns rows colors chars-per-pixel */
"64 64 101 2 ",
"   c None",
".  c #0C0E0E",
"X  c #121A1B",
"o  c #2C341E",
"O  c #151F20",
"+  c #162020",
"@  c #1C2324",
"#  c #1B2729",
"$  c #1D2A2D",
"%  c #1F2E31",
"&  c #202627",
"*  c #262C27",
"=  c #292922",
"-  c #212728",
";  c #212C2D",
":  c #2D342B",
">  c #34342B",
",  c #212F32",
"<  c #292F30",
"1  c #223135",
"2  c #293334",
"3  c #263639",
"4  c #29373A",
"5  c #27383D",
"6  c #2A3A3D",
"7  c #323634",
"8  c #313B3C",
"9  c #423F2E",
"0  c #3F4B2B",
"q  c #434F2D",
"w  c #4B4836",
"e  c #555137",
"r  c #585335",
"t  c #57523C",
"y  c #585438",
"u  c #506036",
"i  c #546239",
"p  c #58693C",
"a  c #2C3E43",
"s  c #313F41",
"d  c #2E4145",
"f  c #334344",
"g  c #34494F",
"h  c #364D53",
"j  c #3D5154",
"k  c #434945",
"l  c #444F50",
"z  c #445355",
"x  c #4B5657",
"c  c #4C5758",
"v  c #4B5C5C",
"b  c #5E5455",
"n  c #555E5F",
"m  c #5D5B5C",
"M  c #6F4E4E",
"N  c #764C4C",
"B  c #7C4949",
"V  c #625758",
"C  c #695758",
"Z  c #655D5D",
"A  c #705555",
"S  c #6E6949",
"D  c #736B4A",
"F  c #7B744E",
"G  c #4E5F60",
"H  c #4D6163",
"J  c #4E6668",
"K  c #516464",
"L  c #5E6566",
"P  c #546B6D",
"I  c #576E70",
"U  c #5B7375",
"Y  c #5D7678",
"T  c #5F7879",
"R  c #666566",
"E  c #6B6061",
"W  c #617576",
"Q  c #637B7C",
"!  c #8E4849",
"~  c #954444",
"^  c #835354",
"/  c #687F80",
"(  c #668182",
")  c #6A8485",
"_  c #6B8789",
"`  c #6D8A8C",
"'  c #708D8E",
"]  c #728F90",
"[  c #759394",
"{  c #789798",
"}  c #7B9B9D",
"|  c #7E9FA1",
" . c #7FA0A1",
".. c #82A3A3",
"X. c #86A9A9",
"o. c #89ACAD",
"O. c #8BAFB0",
"+. c #8EB2B3",
"@. c #91B6B6",
"#. c #91B7B8",
"$. c #95BBBC",
/* pixels */
"- - - - % % % 1 1 % 1 1 1 % O X X X X X X X X X X X X X X X X X X X X X X X X X X X X X X X X X X X $ 1 1 1 1 % 1 1 1 1 1 1 1 % ",
"@ - ; , 1 1 % 1 1 1 1 1 % O O $ % % $ % $ $ % % $ % % % % % $ % % ; % % % , ; $ % % $ % % $ % $ # + + $ 1 1 1 1 1 1 1 1 1 1 1 1 ",
"# % 1 1 1 1 1 1 1 1 1 $ O O % 1 g g h h h h h h h h h h h h h h h h h h h h h h h h h h g h g 1 5 1 + + # 1 % 1 1 1 1 1 1 1 % 1 ",
"$ % 1 1 1 1 1 % 1 1 $ O O 1 5 % a d d d d d a a a a a a a d d d a d a d a a d a a d a d d d a 1 3 d 1 + + # 1 1 1 1 1 % 1 % % % ",
"$ % 1 1 1 1 1 1 1 $ X O % a 3 % 5 6 6 5 6 6 6 6 5 a 6 6 6 5 6 5 6 4 3 4 3 1 3 4 3 3 2 2 3 3 6 1 5 a a , X O $ 1 % 1 1 1 1 1 % % ",
"$ % 1 1 1 1 1 % # + + ; 1 5 a $ % % % % % % % % $ % % % % % % % % % $ $ % % % $ % % $ % $ $ % $ 5 d a 2 $ + X $ % 1 1 1 1 1 % % ",
"$ % 1 1 1 1 1 # X + % , < 2 % 1 6 6 6 6 5 d 6 6 5 6 a 6 a a 6 5 5 3 3 3 5 6 4 6 6 6 6 6 4 4 6 5 a a 2 < $ $ + X $ % 1 1 1 1 % % ",
"$ % % 1 1 % $ O # 8                                                                                         ; @ O # 1 1 1 % % $ ",
"$ % 1 1 3 3 # +                                                                                                 + + a % % 1 % % ",
"$ % 1 1 j j # #                                                                                                 % $ j a % 1 % % ",
"$ % 1 % ) ` # +                                                                                                   % | G % % % % ",
"$ % 1 % _ ` # @                                                                                                   % | J % % % % ",
"$ % 1 % _ ` $ #                                                                                                   ; ..J % % % % ",
"$ % 1 1 _ ' $ #                                                                                                   ; ..J 1 1 , $ ",
"$ 1 1 1 _ ` $ #                                                                                                   , ..I z x c c ",
"$ % 1 1 _ [ ; #                                                                                                   < ../ 7 > > = ",
"$ % 1 5 _ ] % #                                                                                                   1 ..W > D F r ",
"$ % % 3 _ ] 1 $                                                                                                   2 ..W 9 e i q ",
"$ % % 1 _ [ 1 #                                                                                                   2 ..W t S p q ",
"$ % 1 5 _ [ 1 $                                                                                                   3 ..W t S 0 o ",
"$ % 1 5 ` [ 4 $                                                                                                   2 ..Q w y u 0 ",
"$ $ 1 4 ` { 4 -                                                                                                   4 ..Q k > : * ",
"$ % 1 5 ' { 4 ;                                                                                                   8 X.U l z z l ",
"$ % 1 4 ' } 4 ;                                                                                                   4 X.W f f s 6 ",
"$ % 1 5 ] } 6 ;                                                                                                   6 X.) 8 @ @ @ ",
"$ % 1 6 [ } 8 ;                                                                                                   8 X._ 7 . . . ",
"$ % 1 6 [ ..f ;                                                                                                   8 o._ m m m V ",
"$ 1 1 6 [ ..s ;                                                                                                   6 o._ B ^ C ~ ",
"$ % 1 a [ ..f ;                                                                                                   a O.` m R L Z ",
"$ % 1 5 { X.f ;                                                                                                   8 +.` N ^ Z ~ ",
"$ % 1 a } o.f ,                                                                                                   f +.] V E L A ",
"$ % 1 a } O.f 1                                                                                                   8 +.[ M ^ Z ! ",
"$ % 1 s } +.f 2                                                                                                   f #.] V C m N ",
"$ % 1 6 | #.f 1                                                                                                   f $._ 8 2 2 2 ",
"$ % 1 a ..@.f 1                                                                                                   f $._ 3 1 % # ",
"$ % 1 a  .#.f <                                                                                                   f $.` 5 1 % $ ",
"$ % 1 a  .#.f :                                                                                                   f $.` 6 1 % $ ",
"$ % , a  .#.g 2                                                                                                   f $.` 5 1 % % ",
"$ % 1 a | @.f 2                                                                                                   f $._ 5 1 , % ",
"$ , , a } +.f 2                                                                                                   s #._ 5 , % $ ",
"$ % , a } O.f 2                                                                                                   f @._ 4 1 % $ ",
"$ % % a { o.f 1                                                                                                   a @.( 3 1 1 $ ",
"$ % , a { X.f 2                                                                                                   s @.( 5 1 1 $ ",
"$ % 1 a { X.s 2                                                                                                   6 o./ 3 1 % $ ",
"$ % 1 6 [ ..s 2                                                                                                   a o./ 5 1 % % ",
"$ % 1 6 [ ..6 2                                                                                                   6 o.T 3 1 % $ ",
"$ % 1 6 [ | 8 2                                                                                                   6 X.T 3 1 % % ",
"$ % 1 6 ] } 8 1                                                                                                   6 X.Y 3 1 % $ ",
"$ % 1 5 ] } 4 2                                                                                                   6 ..U 2 1 % $ ",
"$ % , 5 ` { 4 2                                                                                                   2 X.U 3 1 1 $ ",
"$ % 1 5 ' { 2 2                                                                                                   4 X.I 3 1 % % ",
"$ % 1 3 ` [ 2 2                                                                                                   4 ..I 1 1 % $ ",
"$ % 1 a _ ] 1 2                                                                                                   1  .I 1 1 % % ",
"% % % 3 _ [ 2 2                                                                                                   1 ..I 1 1 % % ",
"# % % 1 ` ] 1 2                                                                                                   1 ..P 1 1 % % ",
"$ % 1 3 _ ] , 1                                                                                                   2  .P 1 % % $ ",
"$ $ 1 1 _ ' $ 2                                                                                                   , ..K 1 1 1 $ ",
"@ $ 1 1 _ ' $ <                                                                                                   , } K , 1 % $ ",
"@ & 1 % _ ' $ <                                                                                                   ;  .K % 1 1 $ ",
"@ @ 1 1 ) ` # 1                                                                                                   ; ..G @ ; % $ ",
"@ & ; - ) ` $ 2                                                                                                   ; ..G - - , $ ",
"@ & & & ( ` # 1                                                                                                   # ..v & - ; @ ",
"X & & & ) ` @ 2                                                                                                   $ ..v & - & @ ",
"& & & & Y T @ 2                                                                                                   # { x & - - O "
};
