/* XPM */
static char *doorSlidingSprite__1___1___1_1687275668[] = {
/* columns rows colors chars-per-pixel */
"64 64 160 2 ",
"   c None",
".  c #0D0F0F",
"X  c #131616",
"o  c #141B1C",
"O  c #191E1F",
"+  c #151F20",
"@  c #1A1F20",
"#  c #162123",
"$  c #1A2324",
"%  c #1A2629",
"&  c #1D2A2D",
"*  c #1E2D30",
"=  c #212626",
"-  c #2E2C23",
";  c #212728",
":  c #222C2D",
">  c #312E24",
",  c #2C312B",
"<  c #363227",
"1  c #353F23",
"2  c #36352B",
"3  c #39362A",
"4  c #3A392D",
"5  c #222F32",
"6  c #282F30",
"7  c #223135",
"8  c #2A3334",
"9  c #2F3837",
"0  c #26363A",
"q  c #293639",
"w  c #27383D",
"e  c #293A3E",
"r  c #303835",
"t  c #393E37",
"y  c #313C3C",
"u  c #423F30",
"i  c #39403A",
"p  c #464232",
"a  c #494533",
"s  c #4C4B34",
"d  c #41443A",
"f  c #494A3E",
"g  c #564F36",
"h  c #4E5534",
"j  c #4D5C34",
"k  c #57533E",
"l  c #5A543C",
"z  c #59623C",
"x  c #65603D",
"c  c #2B3E42",
"v  c #2D4145",
"b  c #2F4449",
"n  c #334244",
"m  c #3B4442",
"M  c #33464A",
"N  c #33484E",
"B  c #3A4B4D",
"V  c #354E54",
"C  c #3B4E51",
"Z  c #3E5154",
"A  c #3E5759",
"S  c #3E5A5C",
"D  c #3F5F62",
"F  c #464D44",
"G  c #4B4E43",
"H  c #444E4F",
"J  c #484F49",
"K  c #4B5146",
"L  c #4D5448",
"P  c #515444",
"I  c #5E5941",
"U  c #52574B",
"Y  c #5B5B4A",
"T  c #425355",
"R  c #4A5556",
"E  c #425659",
"W  c #4B5658",
"Q  c #455A5B",
"!  c #4A5C5D",
"~  c #5D5C5C",
"^  c #684F4F",
"/  c #625E45",
"(  c #605F4D",
")  c #6A5152",
"_  c #6D5758",
"`  c #635D5E",
"'  c #6A5858",
"]  c #735C5C",
"[  c #5D6353",
"{  c #666147",
"}  c #6A6447",
"|  c #63624D",
" . c #6C664B",
".. c #6E694C",
"X. c #736C4D",
"o. c #616553",
"O. c #646957",
"+. c #736E50",
"@. c #767152",
"#. c #7B7553",
"$. c #7F7856",
"%. c #495E61",
"&. c #426264",
"*. c #4C6264",
"=. c #4D6568",
"-. c #456A6D",
";. c #4E6B6C",
":. c #526464",
">. c #5D6566",
",. c #516768",
"<. c #5C6768",
"1. c #546A6C",
"2. c #5E6868",
"3. c #536E71",
"4. c #4D7171",
"5. c #567474",
"6. c #587577",
"7. c #537B7B",
"8. c #5D7D7D",
"9. c #656263",
"0. c #6C6162",
"q. c #626768",
"w. c #60696A",
"e. c #874748",
"r. c #824B4C",
"t. c #89494A",
"y. c #914647",
"u. c #857D59",
"i. c #8B845D",
"p. c #958D63",
"a. c #988F65",
"s. c #578183",
"d. c #5D8282",
"f. c #5C8C8C",
"g. c #5E908F",
"h. c #638384",
"j. c #648C8C",
"k. c #659494",
"l. c #6C9494",
"z. c #659C9D",
"x. c #6A9A9B",
"c. c #7A9899",
"v. c #66A1A2",
"b. c #6BA2A2",
"n. c #6DAAAB",
"m. c #7EA0A1",
"M. c #82A3A4",
"N. c #85A7A8",
"B. c #86A9AA",
"V. c #89ACAC",
"C. c #8CAFB0",
"Z. c #8EB2B3",
"A. c #91B5B6",
"S. c #92B7B8",
"D. c #95BBBC",
"F. c #98BEBF",
"G. c #98BFC0",
"H. c #9BC2C3",
"J. c #9EC7C8",
"K. c #A2CBCC",
/* pixels */
"  = = ; & * * * * 0 7 7 7 7 * # o o o o o X o o o o o o o o o o o o + X + + X o o o o o X o o o + & 5 7 7 7 7 7 7 7 7 7 * 7 7   ",
"= = % : * * * 7 0 * * 7 7 * # # & * % & & % & & % & % % & & % & & % & ; @ * % % & ; % & & % & % + + * * 7 * 7 7 7 7 7 7 7 7 7 7 ",
"$ $ % 5 7 7 7 7 * 7 7 7 * + # * 5 6 5 5 5 5 5 5 7 7 * * 5 5 : 5 5 5 5 5 5 5 7 5 5 5 5 5 5 5 7 5 % + + & 7 7 7 * * 7 7 7 7 * * * ",
"+ % * 5 7 7 7 7 7 7 7 * + # * 7 5 6 @ @ @ + + @ + + + @ @ @ @ @ @ @ @ @ @ @ @ @ @ @ @ @ @ @ 6 7 7 & + + * 7 7 7 7 7 7 7 7 * % % ",
"# % * * 7 7 * 7 7 7 & + + * 7 7 6 $ ; 5 5 5 5 5 7 5 : 5 5 6 : 5 6 5 : 6 5 6 : 6 5 6 : 6 : @ $ 6 5 0 & + + & 7 7 * 7 7 7 7 * % # ",
"# % * * 7 7 7 7 7 & + # * 0 w 7 $ $ 0 0 0 0 0 0 0 0 0 7 0 0 0 0 0 0 0 7 0 7 7 0 0 0 q 7 q 5 $ $ 6 0 0 5 + + & 7 7 7 7 7 7 * % # ",
"# % * 7 7 7 7 7 & # # & 0 0 0 % # 0 0 0 0 0 0 0 0 0 0 0 0 0 0 0 0 0 0 0 0 0 0 0 0 0 0 0 0 0 * + = 5 w 0 * + + % 7 7 7 7 7 * % # ",
"# % * * 7 7 7 * + + & 0 w 8 & # 7 c 0 0 0 0 0 0 0 c 0 0 0 0 0 0 0 0 0 0 0 0 0 c 0 w 0 0 0 0 0 & + : q 0 0 * + + * 7 7 7 7 * % # ",
"# % * * 7 7 0 & + & 0 0 0 : # 7 0 0 0 w 0 0 0 c w 0 0 0 0 w w 0 c c 0 0 7 c 7 c 7 7 c 7 0 c 7 c & + 5 w 0 c * + % 7 * 7 7 * % # ",
"# % & 7 7 e &.7 # 7 0 8 : # 7 q 0 0 w 0 0 w 0 0 0 0 w 0 w S ;.3.=.=.%.c 7 c c 7 c 7 7 c 0 0 0 0 0 & @ 5 7 0 0 & 7 D 0 7 7 * % # ",
"# % & 7 * N V.v % 7 w 6 $ * q w 0 0 0 w w c 0 0 w 0 w 0 w 4.h.=.=.%.%.c c 7 c c c c c 7 c 7 0 0 0 0 # $ 7 0 0 @ V m.c * 7 * % # ",
"# % & 7 7 N V.i # 7 w 5 & 0 0 w 0 c 0 0 0 0 0 0 w w 0 0 e 7.5.0 c 0 0 7 7 c %.8.3.V 7 c 7 c 0 0 w 0 0 % 5 c 0 @ V m.c * 7 * % # ",
"# % * 7 7 N V.n $ 7 q 5 7 w w w w w w w w w w w e v b b N s.6.0 0 c c 7 c 7 =.d.7.A 0 c 0 0 0 0 w w 0 & 7 c 7 % H M.c 5 7 * + % ",
"# % * * 7 B V.n % 0 0 7 5 w 0 q w 0 w 0 w w w 0 N f.k.k.k.x.6.0 c 7 7 c 7 c =.k.g.&.0 0 c 0 c 0 w w 0 * 7 c 0 @ Z M.c 5 * * % + ",
"# % * * 7 B V.M $ 7 e 7 7 w w w 0 0 w w w w 0 0 V x.1.A E A N w 7 c 7 7 c 7 =.b.v.-.c 0 0 0 0 0 c 0 0 & 0 0 c # T M.T W W W B + ",
"# % * 7 7 C V.M % 7 e 7 * w w w c w 0 w w 0 0 0 V x.E 0 0 0 0 w c 0 c c N %.d.n.n.s.A V c 0 c 0 0 0 0 * 0 0 0 % T N.W - 3 - c 0 ",
"# % * * 7 A B.N % 7 e 0 * e w w w w w w v M N V D x.A 0 w w w w w w w w Z s.k.v.v.k.j.&.c w w w 0 0 0 * 0 w 0 % T V.t l #./ < 8 ",
"# % * * 7 V V.B % 7 e 7 * e w w w e w w A s.d.j.k.k.Z w w w e e e w e e w V 7.f.g.f.&.c 0 e w e c 0 0 * 0 e 0 % T V.d g h j = 5 ",
"# % * * 7 Z V.B % 0 w 0 7 w e w e e w w A h.B M b N v w e w e w w e w w w w M 4.7.S w 0 w e e w w 0 0 * 0 e q % Q V.F X.z j = 8 ",
"# % & * 7 A V.B % 0 e 7 7 w w c e w e w A d.v w w w w w w e w e 0 c w 0 c w c v N c c w e w w e w c 0 * 0 e 8 % Q V.F X.h 1 O 8 ",
"# % & 7 7 Z C.B % 0 c 7 5 w e e w e e 0 A h.v w w w w w w e w e w 0 c 0 e c 0 0 w 0 w c w e w w c 0 0 & 0 e 8 % W V.F l h j = 7 ",
"# % & * 7 A C.Z % 8 w 0 : 8 0 0 e w e e M ;.e w w w c w c w e e c 0 0 c w e 0 c w c w 0 w w c w 0 c 0 & 0 e q % ! V.W t , - y 6 ",
"# % & * 7 E Z.T & 7 e 0 : : : 6 7 8 0 0 0 0 e e i w e e w w e w 0 c c 0 e 0 0 e w 0 0 0 8 0 0 0 0 8 5 & 0 w 0 & ! B.T R H T m $ ",
"# % & 7 7 E Z.E & 0 e 7 i Y ( ( G f f P | o.o.[ U F F J [ [ O.[ [ L K F U O.o.[ o.L f f L | | | Y G d : 0 c 0 % *.B.H n n c q % ",
"# % * 7 7 Q Z.Q & 0 w 7 P p.i.l 3 < p #.a.a.p.{ 4 - < I p.p.a.i.I < 2 a u.p.a.u.l 3 < p #.p.a.i.k < - & q c e % %.V.! ; @ = J 9 ",
"# % & 7 7 Q A.Q : 0 c 7 P $.p - > g u.a.a.i.l < - 3 } p.i.p.#.p - - a u.p.p.#.u - < s u.p.p.#.p - < 4 6 0 e w & *.C.! X . . B 9 ",
"# % & 7 7 Q S.Q * 7 c 7 i p 3 2 a ..X.#.#.k 4 4 4 I X.} O...p 2 < u ..@.@...u 3 3 p ....{ { p 3 4 a { 8 0 c e & *.C.<.~ :.~ q.8 ",
"# % % 7 0 Q D.%.: 0 c 7 : 9 9 9 r y e y e e i e i v e i i i e e 9 e r r 9 9 r 9 9 y y q 8 , 9 9 9 9 8 * 0 e e & *.A.` y.0.e.] 9 ",
"# % * * 7 D D.*.& 0 e 7 : q w w e c w w c w w c c w w w c w w c e w c w c c w c e e c e e 0 w c e e 8 & 0 c 0 : :.A.2.` 2.` q.q ",
"# % * 7 7 %.G.*.& 0 e 7 5 c c w c e c w w c c w w c c w c c c w c c w c c w c w e c e c e e e e e e w * 0 0 w & ,.A.9.t.9.r.] 9 ",
"# % * * 7 %.H.=.: 0 q 5 0 c w c w w w c c c w c c c w c w c w c c w c w c w w c e e v e 0 7 7 0 w w 0 * 0 c c ; ,.D.2._ w._ 9.w ",
"# % * * 0 %.H.=.: 0 8 8 M N V V v & w c c w c e c e c e c e c e e c e c e c w c v e e e q & w V V V V b c c 0 & ,.G.2.t.0.r.0.q ",
"+ % * 5 7 %.K.1.: 0 9 8 e c c c w & 7 c w c w c c c c c c w c w c e c w c c e c w c e w 0 & 5 c v v v v c c q ; 1.H.>.) ~ ) ~ 8 ",
"# % * * 7 %.K.1.: 7 c c v c v n w % c c c c c c c w c w c c c c c c c w c w w c c c c c w & : e v c v c c e e : 1.G.T q 8 8 : % ",
"# % & 5 0 %.K.1.: 0 c c c v c c w * w c c c w c w c c c c w c c c c w c c c c c c e c e e : * c c v c v c c 0 : 1.H.Z 5 * & % # ",
"# % & * 0 :.K.1.: 7 c c v c v c w & 7 c c w c c c c c w c c w c w c c c w c w c c e c c e & 5 c c c v c c c 5 ; 1.J.T 7 7 : % # ",
"# % * * 0 %.K.3.: 0 c c c v c v w & w c c w c w 7 c c c w c c c c c c c c w c c e c c c e * & e v c v c c c 8 & 3.J.Z 7 7 * % # ",
"# & * * 7 *.K.1.5 0 c c c v v c w * w c c c c c c c c c c c w c w c w c c c w c c e c e v 7 7 v c v c c c c e % 3.H.Z 7 5 * % # ",
"# % * * 7 *.J.1.: w c c v v v v c * 7 c c w c w c c w c c c c c c c c w c c c c c c c e c * 7 v v c c c c c e : 1.G.Z 7 7 * % # ",
"# & * * 0 *.J.,.5 q c c c e e e w * * c c c c c c c c c c c c c c c c c c c c c c c c v v * 7 v c q 9 w e c e : 1.G.Z 0 * * % # ",
"# % * * 7 %.J.-.: w v 0 & ; & : * % 6 c c c c c c c c c c c c c c c c c c c c c c c c c c * % & ; $ = : 7 c c & 1.D.Z 0 5 * % + ",
"# % * * 0 %.G.=.: 0 c 8 % & & & % % 6 c c c c c c c c c c c c c c c c w c c c c c c c c v 7 * * 5 5 * % c c q ; :.D.C 7 5 * % # ",
"# % * * 5 %.G.=.& w c 0 7 v c e w w w c c c c c c v c c c c c c c c c c c c v c c c c c c c c c c c c % q c c % ,.A.C 7 * * & + ",
"# % * * 7 %.G.%.: e c 0 7 v c c c c c c c c c c c c c c c c c c c c c c c c c c c c c c c c c v c c c & c c c : :.A.V 5 * * & + ",
"+ % * 7 7 %.A.%.: w c 8 * c c c c c c c c c c c c c c c c c c c c c c c c v c c c c c c c e e v c c c * c c 0 ; =.Z.V 7 0 * & + ",
"+ % & * 0 Q A.%.& e c 7 7 c c c w 5 6 e c c c c c c v c c c b c c c c c c c c c c c c c w 7 7 8 0 c 0 * c c 0 % %.C.B 7 * * & + ",
"% % & 5 5 Q A.Q * 0 c 0 N V V Z M & 8 c c c c c c c c c c c c c c c c c c c c c c c c v w : 0 V V V V b c c c ; *.C.N 7 * * % + ",
"+ % & 5 0 Q Z.Q & 0 c c c v c c c % q c v c c c c c c b c c c c c c c c v c v c v c v c e : 7 v b v v c c c c ; %.V.N 7 7 * * + ",
"+ % * * 7 E C.E & c v c c c c c w & w c v c c c v c v c c c c c b c c c b c c b c v c c c * 7 c c c v c v c c = %.V.M 7 5 * % # ",
"+ & * * 7 E C.T & q c c M c b c w & w c c v v c c v v c c b b c c c c M c c c c v c v v c * 7 v v c c v c c c % ! B.N 7 5 * % # ",
"# % * * 7 E C.Z $ w c c c c c c w * c c v v c v v c c v c c c c c c c c c c c c c v c c q & 5 c c v v c c c c = ! B.n 7 * * % # ",
"# & * * 7 Z C.H & 0 c c c b c c w % w v c c v c c c v c c c b c b c c c b c c c c c c c q : 7 v v c c v c c c % Q N.n * 0 * % # ",
"# % * * c V C.B # c c c c c c c w * w v v c v c v c v c v c b c c c b c v c v M v c v c e : 7 c c v c c v c c % E N.c * * * & + ",
"o % * * 7 Z V.B % c c c c c c M w * w v c v c c c v c c c v c c c c c c c c c c c v c c c & * e c c n c v c c & E N.M * * * & + ",
"o + * * 7 T V.B $ c c q 6 c c c c % c v c v c v c v c v c c c c b c c b n c c c c c 8 8 c 5 : 8 c c c c c b c % E M.c c * * % + ",
"+ + * * * V V.M $ w c q = = & ; % % c c v c v i v c v c b c c b c c c c c c c c c q 6 8 c 5 % % & % : 5 c c c % E M.c 7 7 * & + ",
"o @ % 5 5 B V.M % c c 6 : 5 * * * 7 v v v v v v c c c c c 9 e c c c c c c c c c c 6 8 9 c 0 5 * * * & % c c c @ T M.c 5 7 * % + ",
"o @ $ 5 7 B V.M # w c 5 7 c c c 0 7 7 7 5 5 5 5 8 7 7 : ; : : : : 7 : 5 6 5 7 0 5 5 5 7 7 0 7 c c c c & c c c % T M.q 7 7 : % + ",
"o O $ 5 7 B V.n # c c 0 0 c c 0 7 v v v v v v v c c c c c c c c c c c c c c c c c c c c c c 7 7 c c c & c c c @ C M.8 5 7 * % + ",
"o O $ 5 * B V.m % w c q 7 c v w 7 N b b M N b N N V N N N V N N N N N N N N N N N N V M N N 0 0 c c c & c c c % Z M.6 : 7 * % @ ",
"X O @ : : n V.c $ w c 0 5 w c w 7 v v v v v v v c c c v c v c c c c c c c c c c c c e c c c 7 0 c c c 5 c c q % H M.6 ; 5 5 @ + ",
"O O = = $ m V.c $ 7 c 0 5 6 8 w * 7 7 7 7 7 7 8 7 7 7 0 7 7 0 7 0 5 5 5 5 5 5 5 5 5 : 5 : 7 5 0 c c 0 * c c 8 @ B M.6 ; & @ @ @ ",
"X O @ = = n V.c $ : q c 5 6 8 w 7 7 7 7 7 7 7 7 7 7 7 7 7 7 7 7 5 7 7 7 7 7 7 7 5 7 7 5 7 7 5 q c c 6 % 7 q 6 % B M.6 ; ; $ @ + ",
"O O = = = y c.w $ : 8 0 : 6 6 6 7 w i e e c e e e e e c c c c w q 8 8 8 q q 8 c w c c q q q q c q 7 6 : 6 6 6 @ B c.6 ; ; $ @ X "
};
