/* XPM */
static char *d978f3bbb1174cade67082ad725c82e6D9SAnwcg6TePJAxO[] = {
/* columns rows colors chars-per-pixel */
"64 64 97 2 ",
"   c #25291A",
".  c #292D1E",
"X  c #27301F",
"o  c #2C301F",
"O  c #1F2531",
"+  c #2B2F21",
"@  c #2D3223",
"#  c #313526",
"$  c #343827",
"%  c #33362A",
"&  c #35392B",
"*  c #393C2E",
"=  c #212732",
"-  c #242B35",
";  c #282F37",
":  c #272E38",
">  c #282F39",
",  c #273039",
"<  c #29303A",
"1  c #343730",
"2  c #363A31",
"3  c #3B3E32",
"4  c #3D3E38",
"5  c #3E4135",
"6  c #3F4238",
"7  c #404337",
"8  c #43453B",
"9  c #48453C",
"0  c #46493D",
"q  c #484A3F",
"w  c #2F3640",
"e  c #303741",
"r  c #343B45",
"t  c #373E48",
"y  c #393F4A",
"u  c #3B424C",
"i  c #3F4650",
"p  c #464641",
"a  c #494741",
"s  c #474940",
"d  c #4B4B43",
"f  c #4E4D48",
"g  c #514E47",
"h  c #534F4C",
"j  c #4E5145",
"k  c #4F5148",
"l  c #505046",
"z  c #52524A",
"x  c #59564F",
"c  c #555A4D",
"v  c #434750",
"b  c #434A53",
"n  c #494E57",
"m  c #4A525A",
"M  c #555650",
"N  c #575A51",
"B  c #5B5D54",
"V  c #51575F",
"C  c #625F58",
"Z  c #5E6257",
"A  c #5E6159",
"S  c #606257",
"D  c #63645B",
"F  c #66685D",
"G  c #525A61",
"H  c #585C65",
"J  c #5E6367",
"K  c #656761",
"L  c #676861",
"P  c #6A6C64",
"I  c #64696F",
"U  c #6D6E68",
"Y  c #6D7066",
"T  c #6E7168",
"R  c #72746C",
"E  c #75786F",
"W  c #616870",
"Q  c #6C7079",
"!  c #767772",
"~  c #777872",
"^  c #7A7B75",
"/  c #71767C",
"(  c #7E7F79",
")  c #83837D",
"_  c #7A7E85",
"`  c #7F8289",
"'  c #858581",
"]  c #8A8B85",
"[  c #898C91",
"{  c #8E9196",
"}  c #92959A",
"|  c #979A9F",
" . c #989BA0",
".. c #9FA2A7",
"X. c #A1A4A9",
"o. c #AAABAF",
"O. c #B3B4B9",
/* pixels */
"% & % @ # & & & $ % @ # & % % & & @ @ % % % $ % @ q c $ % % * @ @ % % % * % # @ * # % % % $ @ % $ & & & $ . $ % & $ & & + & $ % ",
"s q d * 7 d 0 s 0 f q 7 d q q q d 5 5 d q q d q j S d s s s d 5 5 d q q q q q 7 s s s d q 0 & d q q q q s d 8 p s s s p & 0 s d ",
"s s d * 7 f s s s q 7 8 s s d 0 s 3 5 d q d 8 x T 7 s s q 0 d 3 * q q q s s 7 0 s q q q s 7 % s s q s d 7 8 d q d d a p $ q s d ",
"f s j * 7 f d d f f * 7 l d d d j 2 5 d d d f ~ d & f f f d f 6 * j d d d j 7 * f s f f g q * f d d q f q # d f d d d d * d d f ",
"3 * * # % 5 3 3 * 5 # % 3 3 3 3 5 @ & 5 * 5 F l @ $ 5 * 5 * 5 $ # 3 3 3 3 3 % # 3 3 3 3 3 % @ 3 3 * 5 5 * . * * 3 5 * * . 3 * 3 ",
"@ * * * * * # @ * * * * * & @ 3 * * * & * D c $ * * & * @ * * 2 * * * @ & * * * * * @ & * * * * * q 8 % * * * * @ % * * * * * # ",
"5 j d f d f 0 5 j d d f j 0 * f d d f f s q d d d j d d & d j d d f j * s f d d d j * q f f f d z T T f d d d j 5 8 l d d d l 5 ",
"3 f s d q g 7 * f q d d d 0 % d q d d d 0 $ d d d d d s & s d d d d d % s f d d d f % 0 d d d 0 S D k s d d d f * 7 d d d d f 3 ",
"3 h d d d g 8 * l d g d l 8 & f f d d g q * g d d g f s & d d d d d f % d f d j d g * q d f d U R z 7 f d g d g * 8 f d d d g 5 ",
"+ & & $ % * # + * % % % * # . * % # % * # . % % % # * $ + & & $ # % % o % % % % * % . % * @ d P q . # * % & % * o # % # * $ * @ ",
"4 3 5 7 # 7 3 3 * 5 # % 5 5 5 3 5 7 % 5 5 5 3 5 % $ 5 * 5 3 3 4 * * 5 5 5 5 * @ 5 * 7 5 * 0 D P 7 5 5 5 * @ 3 3 5 5 5 5 5 5 * 5 ",
"d d q d q d d d d g * 7 d d q d s 0 f 0 d s d f 5 3 f f s d d 8 k q d q s d 8 * d d d q F ( Z z q s s d q % d d q d q 0 7 g q d ",
"s q a % 7 d s a q d * 7 d q q q d & 5 d s 0 s s 4 3 f 0 a p f 3 * d s s s d 6 & q d 7 B ) U 7 8 s q q s 0 $ s q d q s q % q d q ",
"f q f * 7 d d d d f * 7 d d d d d 5 5 d d f s j 5 * f s d d f 5 * f d d s f 7 * g a f P R d & f d f d d q % d d d d d s % d s f ",
"# % # o # & % # # % o # % # # % % @ # % % # $ $ @ @ % # # $ % # @ & & @ # # # @ # 7 F P 5 @ @ & % # % % # o % # # # % # @ % % # ",
"* 0 7 0 7 0 5 % 8 8 0 8 8 7 % 8 7 8 8 8 7 # 8 8 8 8 8 8 $ 8 7 8 0 7 7 $ 8 8 8 0 7 F F k 7 0 8 7 8 % 7 8 8 0 8 8 & 3 0 7 8 7 0 * ",
"3 f d d g g 8 * g d d f f 8 * f d d d d s * d d d d f s * d d d d f d * d g d d d K S p g d g f g * 8 g d d f g 3 7 f d d f d 5 ",
"3 f d s s d 8 * d d d d d 8 % f s d d d s * d d d d d s & d d s d s d % q d d d s d 3 8 d d q s d * 0 d d d a f 3 7 f s s d d 3 ",
"% q 8 q 8 0 5 % s 8 8 q a 5 $ p q 8 q q 7 # q 9 9 9 q 8 $ 8 q p 0 9 8 @ 8 8 8 9 p p # 7 8 8 8 q 8 # 7 8 8 7 9 s $ 5 s p q 8 q * ",
"# # # o @ # # @ # # * @ # # + # # @ + # @ + # # & @ # # @ @ # @ @ @ # @ # # % # # # @ # # # @ # $ @ # # $ 3 + # @ @ $ @ . # # @ ",
"0 q q & 7 s 0 q 0 0 q 7 q q 0 0 q * 3 q s s s 0 0 8 0 0 s 8 s 5 * q 0 0 q 0 8 0 q 8 s q s 7 & s p 0 8 q 8 f s q q q 0 8 $ p 8 s ",
"s s d % 7 d s a s d * 7 d s s q f * 3 d s s s s 5 3 d s s d d 6 * f s 0 q d 7 3 a a s s s 8 & d s s d s 7 % q d s s s 0 % s s d ",
"d g j * 8 f d d d g 3 8 f d d d l 5 5 g d d f l 7 5 j f f d g 8 3 g f q d d 0 * g q f d g 0 * f d f d f q & f f f d f d & f f f ",
"8 7 8 # 5 7 f f 7 8 & * 8 7 0 7 8 # * 8 8 7 7 8 & & 8 7 8 7 7 2 & 8 8 8 8 0 * # 8 7 8 8 7 5 # 0 8 7 7 8 5 # 7 7 8 8 8 7 # 7 7 d ",
"# $ $ % & # B F % $ % % % $ @ % % $ $ % # 8 * $ $ & & $ + $ $ $ & & $ o & & & % $ % @ $ % $ % % & @ $ % & $ % % # # % % $ % $ q ",
"5 d d j a B P A f f j q f 8 * d d j f q Y ! d d d d d s * a d f d s f % q d j d d f * 0 f j d d d * 0 d d f d f * 7 f d f 0 c D ",
"3 s q 0 U P L & s d s s s 8 & d q d 8 F ~ & q d s q s s # q d a s q s $ q s 0 s s d % 8 q s s d s & 7 d s d a d * 7 d d 8 D P F ",
"3 f q S ( D 7 * g d d d f 0 & d d q B ) 0 $ g d f d f s * g d s d d f % s f d d s f * s f q d d d * 0 f d d d f * 7 g 8 B ^ F 6 ",
"# % q F Z 3 # # 3 * 3 * * % + 3 % 7 P 6 % @ * * * * * * @ * * 7 * 2 * o * * 3 * * 3 @ * & 5 5 & 5 @ % * & 3 * 3 @ % % s L F 7 @ ",
"* 5 R c # * * * * * @ $ * 2 3 & 7 E 7 $ 2 * % * # @ * * * * % 8 6 $ * * * * # @ & * & * & 5 0 % & & & * & @ & & * & 0 T B 6 % 5 ",
"z ( ^ 8 5 f s d q g * 6 f s f 8 ( F % f s d s f 5 3 f s s d d 4 7 d d d s f 7 * d s s d d 6 5 s d s d d 8 % d d d z ( ! 0 0 d d ",
"B ( B & 7 f d s d d * 7 d s 7 P ( % 5 d s d d f 5 3 d s s d d 7 & f s d s d 6 * f q f s d 8 & d s d d d q % d s 8 c ^ B $ d s d ",
"^ U g * 8 g j f d l * 8 l d ~ ] z 3 7 l d g f z 7 5 l g f f l 7 5 j g g f g 8 * g f s d l q * l f g f f s * g f F ( U q * g j g ",
"S 3 % @ % * % & * * @ # % # Z 7 % # @ * * # * % # @ * # $ % * # @ & & % % * # @ * # j 3 % # o * $ % * % # @ % 7 P N 5 # o % * % ",
"# 7 7 7 7 7 5 @ 7 5 7 5 7 5 @ 5 7 5 7 7 5 @ 7 5 5 7 7 5 @ 7 5 5 7 5 7 # 5 7 5 7 3 N Y 5 7 7 7 7 7 @ * 7 7 5 5 z Y 5 5 7 5 5 7 % ",
"* d q s s f 7 * d q d d d 8 * f a d d d q % d f d s d q * q f d d d s & q d d 0 M ' 5 8 d d s d d * 0 d f d s d 7 7 d d s s f 5 ",
"* f q s p d 7 & d s q a d 8 & s d a s d p % s s a s s s & s s s d s s # 0 s s g ' x # q d q s s d % 8 d 0 0 s f & 7 d s s a d * ",
"* d q d d d 6 2 d q g 7 d 8 % d a s s d 8 $ d s g d s s & s s s d s s & q q q ~ D 8 % 0 a d d q f $ 8 d s j s d & 7 d d d d d 3 ",
"+ # # @ @ # @ + $ # s 3 @ # @ $ $ @ # # # @ # # * * # # @ @ $ @ @ # # + @ @ R B . # + # # # @ # # X # @ % 5 & # @ @ $ @ @ # # @ ",
"8 7 q % 5 8 8 8 7 7 & 4 7 7 8 7 8 * & 8 7 8 7 q 3 3 8 7 8 8 8 3 & 0 7 0 5 T ! # 8 8 8 7 7 7 $ 0 7 0 8 8 5 & 8 7 8 8 7 5 & 8 7 8 ",
"d d g * 7 d d d d f * 7 f s d s f 3 6 f s d d g 5 4 f d d d f 7 2 d d 8 U ) 7 * f d d d d 0 * d d d d d q % d d d d d s & d d f ",
"f g f * 0 f s f d g 5 7 l d d d f 5 5 g z z d g 5 5 f d d g g 7 5 k s ^ ] g 7 3 f d d d f q * d d z z d q * g d f d f d 2 d d f ",
"0 8 s % 7 s q q 0 s % 4 8 q a s s * 5 8 S ^ q s 3 * a q q q q 3 2 s 8 U g 8 7 % s 8 q q s 7 % s q ! F 8 7 # q q p p 8 8 # q q s ",
"@ # % # # # # . % $ # # % # + # # @ @ * N B 3 # # # # % . # # # @ # $   # # # # % # @ # % # # . 7 N j # # # # % + @ $ $ # # # @ ",
"3 s 0 s q q 7 & q q q q q 8 % s q 8 B L T 7 8 s s q q 8 & q 0 q s s s & 8 q q q q s & 8 p s d c U Z 5 q q a q s * 7 s q q 8 s 3 ",
"* d s 8 a d 7 % d a a a s 7 * s s s T U f # d s s s s q $ s d q s s q % 8 d a a a d % 9 f 8 z ~ D * 7 d a s q d & 7 d q q a d * ",
"3 f f l s f 8 * d d d d f 0 & f 8 B ( C 8 * d d d d d s & d d d d d d % s d d d d d * a s s R ~ x % 8 f d d d d * 7 f s f 8 f * ",
"$ 7 7 g 7 7 3 # 7 5 7 7 7 * # 4 z E z 5 3 # 7 5 7 7 6 5 @ 5 6 q f 5 7 @ 7 7 7 7 7 5 # 3 d T U z 7 # * 7 4 7 7 7 # 3 7 4 M 8 7 $ ",
"$ $ % # # % % % & & @ @ & # # c R B @ % % % % % @ @ $ & % & $ % & % % # % % # @ & & $ 7 T Y q @ % & % $ $ X $ $ % % % $ @ * $ % ",
"d d f 2 7 g d d d j 5 7 j 0 k ( ! 7 5 j d d d d 7 5 j d d d d 7 5 d f f d f 8 * f d 8 F ( N & f f s d f q * d d d j d d % d d j ",
"f s f * 7 f d s d d * 6 d D R R c 2 5 g d s d f 5 5 g d d d f 7 5 d s d d d 7 3 s g F ~ S 7 * d d d d d 0 % d d d d q s & q s f ",
"F d z * 8 z g j f z 5 7 M ^ ^ A f 5 7 h j j f z 7 5 l f d f z 8 5 j f j l l 8 3 f D ( T j d * z d d f j d % g f j f l d * f f j ",
"Z * 3 # % 3 * 3 * 3 @ # 8 T q & 3 # # 3 3 3 3 3 # # 3 2 * * 3 # @ 5 * * 3 3 % # * S F * 3 % # * * * 3 3 & @ 3 * & 3 * * @ * * * ",
"@ * * * * * % @ 3 * 3 5 * 8 @ * * 3 * * & + * 3 * 3 * 3 @ * * 3 5 & * X & * * 3 % 8 7 % 3 * * * * @ % * * 3 * 3 @ $ 3 3 * * * $ ",
"3 f a s d d 8 * d s d d d 7 & d s d d d 8 & d d d d d s & s f s s f d & a d d s d d % q d d d d f * 0 d s s d d * 8 d d d d g 5 ",
"3 s s a s d 7 % s 0 s 8 d 7 & d s s a d 8 % s a q 7 a p % a a a s s s # q d q s a s % 8 s a a a d % 7 d s d q d & 6 a q q s s & ",
"3 k f d d f 0 * h d C d f 8 * f d d f f s * d a B z d s * d f f f d f % d d z x d g % s f d d d g & 8 g g B d g * 8 f s f d g 5 ",
"@ 1 % & % 1 # @ 1 # 4 1 % % + & % 1 1 % % + 1 % 1 4 % 1 + % % % & & 1 + & 1 1 4 & & + % & & % 1 1 + & 1 % 5 1 1 + $ 1 % & & 1 + ",
": : - = : : O , > > = : : - : : : : : : - : - : : = : : : - - - - > - > - - - - : - : : : : - : : : : : - - - = = - - - - - : : ",
": : - y - < u - = = e - - r : : > > > > > > > > > > > > : > < < > > > > < < < > > > : > > > > > > > > > > > > v i r w r r e > > ",
"< - W X.Q ` O.` _ `  .W J  .G : > > > > > > > > > > > > > ; < < > > > > > : > > > > > > > > > > > > > > ; > < G G v t t t y > > ",
"< O [ X.X...[ O. .} } / } o.H O > : > > > > > > > > > > > > : > < > > > > > > > > > > > > > > > > > > > > > : > t t t t r r > > ",
"> - n b b m b m u n u u G b r - w : > > > > > > > > > > > > < : : < > > > > > > > > > > > > > > > > > : > > > > e e e w e < : > ",
"> > - = = = = O - = - = O = : : > > > > > > > > > > > > : < : < : > > : > > > > > : > > : > > > > > > > > > > : : : - : > > > > "
};
