/* XPM */
static char *pexels_messala_ciulla_1114226__1_1686937061[] = {
/* columns rows colors chars-per-pixel */
"64 64 161 2 ",
"   c #431C00",
".  c #4F1F00",
"X  c #501C00",
"o  c #5B1F00",
"O  c #4D2400",
"+  c #522500",
"@  c #5B2A02",
"#  c #5A3008",
"$  c #612600",
"%  c #652B03",
"&  c #6A2C00",
"*  c #692D08",
"=  c #6C3207",
"-  c #64340B",
";  c #6B330B",
":  c #6D3A0D",
">  c #743206",
",  c #73360C",
"<  c #793609",
"1  c #75390D",
"2  c #7B3A0D",
"3  c #653913",
"4  c #713614",
"5  c #763913",
"6  c #7B3C12",
"7  c #7F3E18",
"8  c #7F410E",
"9  c #7E4216",
"0  c #77431B",
"q  c #7D451A",
"w  c #744720",
"e  c #7C4622",
"r  c #774A23",
"t  c #7D4B26",
"y  c #803B0D",
"u  c #813E12",
"i  c #81410F",
"p  c #834315",
"a  c #8A4515",
"s  c #864815",
"d  c #8A4916",
"f  c #84451B",
"g  c #8A461B",
"h  c #85491D",
"j  c #8C4A1C",
"k  c #934C1C",
"l  c #994F1E",
"z  c #8F501D",
"x  c #94511E",
"c  c #99511E",
"v  c #874722",
"b  c #844A23",
"n  c #8D4D22",
"m  c #874D28",
"M  c #894D28",
"N  c #934E22",
"B  c #984F22",
"V  c #904F29",
"C  c #855024",
"Z  c #8C5125",
"A  c #83532B",
"S  c #8D532B",
"D  c #945224",
"F  c #9B5424",
"G  c #965827",
"H  c #9C5925",
"J  c #94552A",
"K  c #9B562B",
"L  c #955A2C",
"P  c #9C5A2C",
"I  c #945631",
"U  c #9B5730",
"Y  c #965A32",
"T  c #9C5C32",
"R  c #9C5E38",
"E  c #A15725",
"W  c #A25A27",
"Q  c #A0572A",
"!  c #A35C2C",
"~  c #A95E2D",
"^  c #A35E32",
"/  c #A85E32",
"(  c #A25F38",
")  c #9F602D",
"_  c #9E6134",
"`  c #9D6239",
"'  c #A6612D",
"]  c #A9622E",
"[  c #B1622F",
"{  c #A56234",
"}  c #AB6434",
"|  c #A46836",
" . c #AD6936",
".. c #A5643A",
"X. c #AA663A",
"o. c #A56A3D",
"O. c #AD6A3C",
"+. c #B16635",
"@. c #B26937",
"#. c #B96936",
"$. c #B16739",
"%. c #B36C3B",
"&. c #B96E3D",
"*. c #B5703E",
"=. c #BA713F",
"-. c #C0733F",
";. c #A36742",
":. c #AB6740",
">. c #A66A42",
",. c #AD6C42",
"<. c #A96D48",
"1. c #B36E42",
"2. c #B96F42",
"3. c #AD7147",
"4. c #AD734B",
"5. c #B57244",
"6. c #BB7444",
"7. c #BE7946",
"8. c #B47349",
"9. c #BB764A",
"0. c #B5794C",
"q. c #BD794B",
"w. c #BB7750",
"e. c #B67B53",
"r. c #BD7C52",
"t. c #C17645",
"y. c #C27947",
"u. c #C87B47",
"i. c #C0774A",
"p. c #C37B4B",
"a. c #C97E4D",
"s. c #C37D52",
"d. c #C97E51",
"f. c #B78152",
"g. c #BF8055",
"h. c #C6804E",
"j. c #C9814E",
"k. c #D0834F",
"l. c #C58154",
"z. c #CC8353",
"x. c #CE8857",
"c. c #C6845A",
"v. c #CC865A",
"b. c #CE895B",
"n. c #D08655",
"m. c #D28957",
"M. c #D48B5C",
"N. c #D98E5D",
"B. c #D6905F",
"V. c #DA905F",
"C. c #CD8C61",
"Z. c #D38E61",
"A. c #D98F60",
"S. c #D29165",
"D. c #DB9364",
"F. c #D2936A",
"G. c #DB9669",
"H. c #D7986D",
"J. c #DB986D",
"K. c #E19766",
"L. c #E49C6B",
/* pixels */
"..g :...:.( X.U N / ! / / k N B x z H G z z 8 s j d G W ' ) c z 8 s 9 s s i 2 j u u v f 9 9 : = q 3 * $ o $ 5 e 4 @ X . X O O O ",
"r.{ l.c.v.s.s.9./ q.9.i.i.$.1.6.7.=.h.7.*.*. .=. .| %.f.f.l.h.*.*.f.7.0.9.O.{ 5.X.:.9.X...>.` 3.3._ S S M M Y I m v e t r 3 +   ",
"..V 1.1.8.8.8./ Q 1.X.%.1.Q / &.h.f.l.7.*.5.*.q.*.} @.=.=.*.5. .) O.%.*.5.} { O.w.8.s.:._ o.>.0.e.` R R R R R J S V A A A r 3 # ",
"n 6 K U N K K v K Q k N B k B Q x z z s s z s d ) G G H z z z s 8 s s s N k k D N N I u 6 9 9 q h 1 2 7 < 5 5 , 4 ; ; 4 3 # @ + ",
"1.X.r.r.X.1.1.1.s.s.} &.i.2.i.s.5. .*.*.=.f.} |  . .*.*._ | O.O.9.2./ / %.2.&.1.K K / ( ( o.U L J n J J f p n V b b b b b 0 - @ ",
"8.:.w.9.T ,.1.1.i.w./ $.i.i.a.s.} )  .O.*.6.' P 5.*.7.6. . .6.7.p.i.1./ 1.i.i.i.:.:.2.2.5.0...L | _ ..{ Z n L ( ..R L Z M C q : ",
"V g V U u K V N B K g B ! B K Q H G ) H H ' F H | ) ) ' G G H F B K B u Q Q ! / B B K N n n 2 , h 2 2 8 < < u u j u > & = : ; @ ",
"1.{ 1.q.X.c.q.1.} 9.1.2.i.X.$.&.6.*.q.*.O.6.*.q.7. .O.*.%.*.5.%.X.6.t.1.2.2.1.2.9.2.9.X.^ ..T { X.D j F ! X.X.K V V n Z L ) q % ",
"O.V :./ ,.9.9.^ X.2.p.s.s.&.1.z.7.h.p.*.*.p.l.h.a.7.7.a.p.h.a.*.} i.a.6.2.&.2.d.i.i.d.( ( 8.,.3.f.{ ) { } X.%.{ Q { T ..o._ J L ",
"D u V V u K K g N B B E / Q ! 1.W { } ! P ' ' ' P D H F x x D k u F N k k B Q / Q U / g g J h p d 8 p d u y y > < 2 < 2 f , $ @ ",
"X.U ( 1.V 8.:.1.d.w.1.1.i.i.i.d.~ 6.z.M.M.z.6.} 7.6.q.7. . .%.@.1.6.$./ X.1.2.i.( / :./ | 5.L q G D L P N h j a a u u u n h 6 6 ",
"X.T :.1.Q 8.8.9.v.i.%.1.i.9.2.i. .q.D.L.L.D.l.=.y.7.y.7.%.%.6.1.q.p.1.X.2.i.9.q./ / :.:.5.f.` G | ) | | D B ^ ..Q J g v L L S L ",
"( g T K V K K N B B k K / K k Q k k k k k k k l Q B F F l D F x D H x k P { ! P g g K J J Y h q Z q s 9 > > f N N g , 5 f 5 = , ",
"1.n X.^ X.X.X.^ X.1.2.i.i.&./ %.7.6.&.} } X.&.6.6.} }  .+.&.&.} P X.| | *.1.X.X./ ( :.( T _ S _ _ L Z ) n n J L N v v J L f , 5 ",
"X.N ( X.X.8.1.:.i.d.d.v.d.2.$.i.9.y.y.p.i.t.7.6.a.7.6.t.9.p.y.%.O.0.7.5.9.5.O.O.w.w.s.1.3.8.>.4.f.o.| o.:.3.,.:.J U U ;.<.I b S ",
"K f n ( j ( K K K K Q Q Q B k ! ! Q ~ ~ ~ ~ } $.} Q Q ! E E F k s P _ ' ' P P P U B U V Z L G L L 8 8 0 f V L v v u 7 f q * * 5 ",
"U X.1.s.( X.X.1.9.2.&.$.1.$.&.m.+.+.+.%.=.u.+.! +.&.%.&.! E +./ / X.X.} o.X.{ 5.%.K K / X.} D P ` H P { T K U U V J V M v v v v ",
"s.s.d.d.:.1.1.a.v.a.$.6.n.M.d.m.&.&.z.n.N.N.t.%.t.t.t.u.$.~ 6.&.p.s.9.1.2.6.5.p.1.X.1.1.5.1.{ %.c.f.r.s.8.:.1.1.:.( ( ( ( ( R ..",
"V N J K j a B F / Q k E $.$.~ ~ ~ +.t.t.t.t.+.~ +.%.+.&.~ W +.} / } ~ P } / ' %.^ K } } { ! G ' / K Q ^ N g n j v v a f f f 7 7 ",
"X.K :.:.9.X.1./ $.2.6.t.t.+./ 6.&.6.a.t.&.2.&.t.t.=.%.2.&.+.t.%.Q O.1.5.6.%. . .$.} 1.&.X. .'  .} ! / { P P ! H g B V n g f f f ",
"i.:.r.s.Z.p.p.%.i.v.M.M.n.2.&.n.n.d.M.t.&.t.t.n.a.u.%.t.t.t.a.%.@.p.x.z.j.=.*.=.y.6.y.*.=.=.*.=.y.5.*.=.6.7.f. .P { 5.3.o.{ ..o.",
"J u N U ^ V F V ! / ! / +.! E ~ ] ~ &.~ W ~ W / ~ ! l W E E ] c l ' } ] ' c '  . .Q ' W W ] H H F k x c x G H d d D P G f < 2 9 ",
"( Q / 9.{ P } 1.%.} ! / &.X.+.&.~ ~ &.+.+.@.~ W ] +.~ } W E } W H ' W H ' ' ] *.' W ] ' '  .H ' c c c H x c ) c x D x p > & & & ",
"w.s.v.J.1.} X.a.d.d.t.i.a.i.p.N.a.u.m.m.N.K.a.p.a.n.z.n.t.&.z.a.m.x.h.=.h.=.=.=.*.%.p.7.h.j.=.=. .*.y.=. .*.f.=.7.*.| ) P G G P ",
"^ X.1.( k D X.&.2.2.~ / $.$.+.&./ } +.&.t.t.+.E ~ +.+.&.~ E &.&.@.@.] ' ]  . .=.] ' '  .] ' c c [ [ ' ' ) W ) ) ' G z z s s i i ",
"X.( X.X.^ ^ X. .X.1.%.&.2.$.+.%.&.&.+.] } %.&.%.&.%.~ +.~ W +.~ ] @.] [ @. .]  .]  . . . .] ' '  .' H H H H x d ' G z x G z s i ",
"C.i.i.C.v.v.l.s.i.v.N.D.K.m.j.N.M.N.N.N.n.n.M.N.K.z.&.a.z.n.M.y.=.h.h.j.j.7.=.=.6.p.p.7.=.-.h.h.k.7.*.*.7.7.*.| 6.| | | O.| ) z ",
"1.^ ( 8.9.1.1.%.} 6.q.a.a.t.t.z.6.i.a.u.t.t.t.t.a.&.~ &.6.t.a.&.@.7.=.f.7.*. .@.} &.2. . .%.*.@.] ' ' '  .@.' ) ' ) H P ) G z h ",
"( K ( 1./ U } %.&.:.} } &.%.%.t.@.+.+.~ +.]  .+.%.+.~ &.+.~ &.] &.6.1.$.*.[ ] *./  .} ! '  . .c c c c H P ! F x H D D D h p s h ",
"8.2.s.d.9.1.s.M.A.M.t.6.a.a.a.M.u.t.p.j.n.a.t.&.6.p.p.n.t.&.a.z.v.v.p.2.=.f.7.h.9.9.9.6.q.h.*.'  . .*.*.5.%.%.O.{ { _ T G D G P ",
":.:.2.8.X.O.9.p.d.s.&.%.2.2.&.t.6.&.6.a.d.t.&.+.+.%.&.t.&.+.u.t.a.s.1.$.1.5.*.6.1.$.%.%.*.%.' c ' ' ] ] ' ! P P { P G D D n Z D ",
"/ :.X.( / X.2.O.2.2.X.$.2.2.@.&.t.&.+.%.&.+.@.&.=.&.+.-.+.~ 2.%.%.%.! K } } ! { K F K Q K k d s H c c H D x k k D d y p f s 9 2 ",
"b.s.8.v.Z.v.M.9.6.t.i.z.N.m.a.n.a.m.K.a.t.n.d.n.d.u.-.-.u.u.u.u.%.t.a.a.z.p.&.*.&.y.t.=.%.=.t.=.t.@.@.=.6.u.7. .%.} } %.o.! K P ",
"8.%.{ 9.9.2.i.$.&.i.a.d.a.t.t.d.l.z.A.s.t.a.t.u.u.-.[ #.-.-.#.#.+.&.=.t.u.=.@.&.@.=.=.@.+.&.@.+.&.[ } +. .+.} E } ' } } } K F G ",
":.O.X.1.1.$.9.&. .&.&.2.6.&.&.p.a.6.y.6.2.t.+.#.-.#.-.-.-.[ [ [ +.&.%.+.%.+.] %.} @.@.} ] +.} W ~ c W ] ~ ~ ] F k F D k N j a p ",
"v.v.v.Z.d.s.Z.M.M.v.a.n.K.L.K.L.z.6.i.i.a.a.&.t.a.d.N.N.a.t.t.u.u.z.t.6.t.=.&.t.=.u.t.=.t.y.t.+.@.} #.=.%.&.&.+.]  . ./ / }  .{ ",
"c.c.s.v.r.9.v.v.Z.n.i.d.A.G.A.K.s.2.i.i.a.s.2.t.u.d.d.d.u.&.t.u.p.j.y.=.=.&.@.6.6.t.6.=.=.7.=.} =.#.=.t.@.}  .Q / } ~ K K { X.{ ",
"8.1.:.8.%.( 2.1.%.2.1.&.&.} +.2.i.6.i.2.2.2.$.&.-.#.-.t.#.#.#.&.@.&.%.@.&. .+.*.%.6.=.} } +.] F +.] ] } ~ W ! F k k h a s a j n ",
"r.8.1.r.w.8.s.q.9.s.s.a.p.2.2.s.v.v.Z.p.2.a.t.a.u.t.t.u.u.t.a.a.&.7.t.9.a.7.=.7.6.y.y.1.%.&.&. .&.]  .@.+.%.*. .X.{ { { / L K T ",
"r.9.:.s.s.i.v.q.2.6.2.9.d.a.t.a.z.M.G.a.2.d.i.d.i.t.-.t.u.a.u.a.$.7.7.9.p.6.%.&.$.6.6.%. .&.*.&.=. . .+.} @.%.}  .{ { X...F k V ",
"1.( ..o.X.:.1.,.} 9.q.9.s.a.9.d.s.1.9.6.9.i.&.1.&.&.$.+.&.&.&.+.} &.O.} } ' { *. .%. .! H ' %.*.%.! ! } } } ~ F F P P K n s 7 p ",
"8.:.8.w.1.1.w.w.w.l.q.i.Z.G.Z.K.v.q.s.l.v.M.9.2.t.i.i.t.t.t.p.u.z.n.p.6.7.6.6.p.6.5.*.%.*.5.5.*.q.&.6.q.*.O.X.{ ^ / { / P U _ ..",
"8.1.r.c.9.5.w.r.s.v.9.9.A.G.Z.A.s.8.s.s.v.v.2.X.2.9.t.i.&.&.2.t.p.p.5.X.5.7.5.p.5.5.=.5.7.9.6.O.&.O.6.6.} ' X.X.X.{ ^ L K P T ..",
"..Y ;.,.o.( ..^ ( 1.{ X.q.1./ X.../ 1.X.X.1.~ ~ $.$.$.$.+.} ] } ! ' P P { } { X.{ { } | X.O.X.P ! H ! / G D T { P J n f f f f f ",
"c.<.,.e.r.r.r.,.:.l.v.Z.Z.q.:.p.w.r.C.q.%.1.1.p.s.a.7.y.a.a.i.7.1.q.p.q.q.5.O.5.*.5.8.5.=.*.5.%.6.O.%.%.X.O.5.6.( U J J J J Z n ",
"C.e.8.r.c.C.C.w.X.c.F.G.G.s.9.b.C.Z.G.s.1.8.9.d.s.9.6.i.z.n.d.t. .q.q.p.r.7.5.7.9.p.l.9.5.5.7.9.q.%.O.1.O.1.5.:._ T T T T T J n ",
";.U J ..( ..( R K ......X.P F :.8.1.9.....1.X.X.} / ^ } %.%. .} H ^ ^ ^ } { ! { O.*.O.} { } { { ^ H P ! P K K D J J D D n Z n M ",
"3.,.e.r.8.3.w.w.C.v.9.1.9.%.X.s.9.1.1.1.q.Z.q.%.q.a.i.a.y.9.6.=.p.s.6.1.9.5.5.9.p.9.5.5.5.5.5. .O. .*.q.5.%.%. .O.O.....{ X.:.8.",
"l.c.c.C.s.9.C.Z.S.M.l.y.c.x.M.G.c.7.x.B.D.L.n.y.z.N.z.N.z.7.j.x.m.x.k.7.j.h.h.j.j.=.h.h.-.x.y.=.p.-.t.p.&.+.&.6.%.6.$./ 1.s.9.5.",
"o.:.,.8.{ G O.:.X.X.{ { @.=.6.h.&.] =.6.*.=.] H } @.]  .} Q @.@.*.=.*.@.*.#.] %.H c ] ] '  .c x W E W W c l c c B F k a N H F F ",
"..{ ..8.8.3.r.8.5.9.7.9.h.q.6.h.z.6.z.y.&.&.%.%.6.1.} %.6.&.y.t.@.-.7.7.h.=.%.=.=.@.h.#. .#.*.=.#.&.-.-.@.&.=.+. .%.} / } ! K P ",
"8.o.| g.C.S.G.l.q.v.b.b.B.z.p.7.D.z.z.y.%.7.q.a.a.p.&.p.z.z.M.j.@.y.h.u.7.7.=.7.j.7.h.*.] =.=.p.p.u.u.t.=.y.h.=.2.7.6.6.5.^ B D ",
"..T J o.,.o.1./ X.8.5.5.7.5.%.5.7.} %.O.} 5.%.%.%.%.{ &.7.%.5. .) @.*. . . .] @. .' @. .] &.' H W E F k a c F k F K D x N u > < ",
"o.3.8.r.o.T 5.8.l.p.5.O.5.7.7.l.6.} q.h.h.z.7.%.7.q.5.p.p.*.6.@.@.y.7. .*.=.7.7.7. .*. .@.q.%.' +.~ ] W l E ! H / { H D D D B K ",
"c.F.F.H.s.8.S.J.S.b.q.9.l.c.l.b.a.9.D.G.D.G.l.6.b.N.v.M.b.6.s.q.h.x.j.7.h.z.j.x.h. .#. .X.a.5. .a.6.y.p.=.@.*.*.6.q.1.{ O.5.8.,.",
"8.8.>.,.T J o.o.O.o.^ { 6.q.5.5.6.O.p.l.p.p.O.! q.d.q.y.&.^ O.%. .=.*.' O.=.*.*.] )  .*.%.7.} H ~ c ' } F k x D G { P j L { J j ",
"3.Y Y ..` _ _ T { ..X.1.r.8.5.q.5.7.p.p.5.O.} } 5.5.5.%.5.6.9.6. .7.6.9.l.p.5.9.X.O.%.5.5.%.X.!  .' ' { ' { | { K P L D D _ _ Z ",
"r.:.<.e.c.C.c.r.8.q.q.l.v.9.8.l.c.v.b.l.q.9.p.c.h.p.q.l.v.b.l.s.o.7.q.q.l.r.5.5.9.7.9.8.5.X.{ { 5.|  .O.O.O.*.| _ ) _ _ P J Z J ",
"3.I L ..,.,.,.` ` o.o.,.1...{ 8.X.O.O...{ { X.5.O...{ _ | O.,.O.| *.3.8.9.:.{ T { ( ( T L K K P ' D G P H P P z G n j n s , 1 q ",
"<.Y Y R I S U Y T _ T ^ ..P P 1.^ { X.X.| X.| { O.X.} ..X.{ X.X.O.3.O.X.:...P P ..( ^ / X.X.X...{ P ' { G G L D | L D n f 9 f Z ",
"<.;.4.e.o.R ,.e.r.0.,.,.8.o.O.q.1.8.5.5.r.s.8.X.8.8.l.c.r.1.:.X.1.8.,./ O.X...,.1.1.:.1.8.9.1.X.*.O.*.O.T P _ ) | | _ Z S _ Y L ",
"R ` e.g.<.R ` ,.8.:.....O.o.o.8.X...^ T { :.o.K { { { ..^ K K ( ^ ( ( J { ....X.U V J U ....( J ) L ) L z z Z Z b J Z Z Z L L q ",
";.R ;.4.>._ T R M J Z J { T L :.....{ U ^ X...P ,.( L ^ ^ T / :.V ^ R R ..( U ( U U U ( ( ( T K ) G G G D G ) D j Z Z Z S L Z C ",
"4.Y I ;.>.<.,.o.U ` | :.8...{ 8.,.q.w.8.1.9.9.1.5.X.1.l.C.C.s.w.:.w.w.s.s.9.:.:.8.w.w.9.:.( .._ O.L G ) _ o.o._ L C C Z C h C _ "
};
