/* XPM */
static char *e24788b78234461be80d874db8a4da03tyIAZHB2mI543Bkf[] = {
/* columns rows colors chars-per-pixel */
"80 80 239 2 ",
"   c None",
".  c #140301",
"X  c #1B0501",
"o  c #1D0903",
"O  c #240B04",
"+  c #2B0B02",
"@  c #250903",
"#  c #330A00",
"$  c #2D1108",
"%  c #341409",
"&  c #3B190A",
"*  c #3A1406",
"=  c #3A1B12",
"-  c #4A1A05",
";  c #441C0A",
":  c #491D0A",
">  c #491905",
",  c #5B1D04",
"<  c #541A04",
"1  c #4C210C",
"2  c #53240C",
"3  c #5B280D",
"4  c #5E2509",
"5  c #632306",
"6  c #642C0E",
"7  c #6B2808",
"8  c #762C08",
"9  c #6C310F",
"0  c #73330D",
"q  c #7C340C",
"w  c #783711",
"e  c #702E11",
"r  c #641F04",
"t  c #84350B",
"y  c #8B3B0C",
"u  c #84360A",
"i  c #913C0D",
"p  c #843D11",
"a  c #853D16",
"s  c #99440F",
"d  c #934312",
"f  c #9B4512",
"g  c #9C4A16",
"h  c #8A4013",
"j  c #A7490D",
"k  c #A34C13",
"l  c #A64C15",
"z  c #AC531B",
"x  c #AC5315",
"c  c #B45413",
"v  c #BA5A18",
"b  c #884728",
"n  c #AC5A29",
"m  c #BC6430",
"M  c #C35D16",
"N  c #DC5D03",
"B  c #D7650F",
"V  c #C5611A",
"C  c #CB641C",
"Z  c #CC6314",
"A  c #D66917",
"S  c #DE701A",
"D  c #EA6A06",
"F  c #F67405",
"G  c #F87404",
"H  c #F87A07",
"J  c #E97419",
"K  c #F57B15",
"L  c #F57B16",
"P  c #EA6F0C",
"I  c #C86526",
"U  c #D76D25",
"Y  c #D9752A",
"T  c #DB7432",
"R  c #DA7839",
"E  c #D26D31",
"W  c #E77B28",
"Q  c #E27935",
"!  c #F37E23",
"~  c #C25F20",
"^  c #B87F63",
"/  c #C37645",
"(  c #F9861B",
")  c #F98C10",
"_  c #E8832B",
"`  c #F68424",
"'  c #F98B23",
"]  c #F4832B",
"[  c #FA8D2A",
"{  c #F88728",
"}  c #FA922B",
"|  c #FB9628",
" . c #EA8439",
".. c #F38432",
"X. c #F78B39",
"o. c #FA9432",
"O. c #FB9B34",
"+. c #FA943B",
"@. c #FB9B3B",
"#. c #F59237",
"$. c #EC953B",
"%. c #FDA72B",
"&. c #FDA534",
"*. c #FCA33D",
"=. c #FDAC39",
"-. c #FEB23C",
";. c #FEB736",
":. c #FDB22E",
">. c #FEC23F",
",. c #D38958",
"<. c #E88545",
"1. c #F68D49",
"2. c #FB9442",
"3. c #FB9D44",
"4. c #FA9C4B",
"5. c #F69549",
"6. c #E9995C",
"7. c #FB9B53",
"8. c #F79958",
"9. c #E68B51",
"0. c #FBA444",
"q. c #FCAA46",
"w. c #FCA44B",
"e. c #FCAA4D",
"r. c #F6A846",
"t. c #FDB344",
"y. c #FEB848",
"u. c #FBA454",
"i. c #FCAB52",
"p. c #FBAC5B",
"a. c #F9A259",
"s. c #FCB254",
"d. c #FEBB53",
"f. c #FCB45B",
"g. c #FDB95D",
"h. c #D79262",
"j. c #E69B64",
"k. c #F79C63",
"l. c #E6A069",
"z. c #FAA564",
"x. c #FAAC64",
"c. c #FBAB6B",
"v. c #F7A669",
"b. c #FCB464",
"n. c #FCBC63",
"m. c #FCB46A",
"M. c #FDBC6B",
"N. c #F6B068",
"B. c #F4AC73",
"V. c #FBA974",
"C. c #FAB274",
"Z. c #FCBC74",
"A. c #FBB57B",
"S. c #FBBB7B",
"D. c #F5B478",
"F. c #EEAC7A",
"G. c #FEC447",
"H. c #FEC35D",
"J. c #FEC656",
"K. c #FED453",
"L. c #FDC363",
"P. c #FDC36C",
"I. c #FECB6C",
"U. c #FECA64",
"Y. c #FED669",
"T. c #FDC572",
"R. c #FDCB74",
"E. c #FCC57C",
"W. c #FDCC7B",
"Q. c #FED474",
"!. c #FED37C",
"~. c #FFDA7B",
"^. c #FED877",
"/. c #FFE46B",
"(. c #FFE379",
"). c #FFE474",
"_. c #FABC84",
"`. c #FABE8A",
"'. c #F8B684",
"]. c #FDBB99",
"[. c #EBB28E",
"{. c #CF9C82",
"}. c #FDCC83",
"|. c #FBC38C",
" X c #FCCC8C",
".X c #FCC485",
"XX c #FDD484",
"oX c #FEDA84",
"OX c #FDD38C",
"+X c #FEDC8C",
"@X c #FBCC9B",
"#X c #FAC892",
"$X c #FCD394",
"%X c #FEDB92",
"&X c #FEDE9D",
"*X c #FDD59B",
"=X c #FFE184",
"-X c #FFE38B",
";X c #FFEB8A",
":X c #FEE394",
">X c #FFEA94",
",X c #FEE49C",
"<X c #FFEB9C",
"1X c #FFF594",
"2X c #FFF29C",
"3X c #FFF28B",
"4X c #FCCBA7",
"5X c #FCD6A6",
"6X c #FCCEB4",
"7X c #FCD6B4",
"8X c #FEE5A4",
"9X c #FFECA3",
"0X c #FEE4AA",
"qX c #FFECAA",
"wX c #FFF3A5",
"eX c #FFF3AC",
"rX c #FFF8AB",
"tX c #FFECB4",
"yX c #FFEDBB",
"uX c #FFF5B4",
"iX c #FFF9B4",
"pX c #FFF3BC",
"aX c #FFF9BD",
"sX c #FEE7CA",
"dX c #FFF4C4",
"fX c #FFFAC4",
"gX c #FFF5CA",
"hX c #FFFACC",
"jX c #FEE7D2",
"kX c #FFFBD4",
"lX c #FFFCDB",
"zX c #FFF4D6",
"xX c #FFFDE4",
"cX c #FFFEEC",
"vX c #FFF4E2",
"bX c #FFFFF3",
"nX c #FFFFFB",
"mX c #FFEFE0",
"MX c #FCD9C0",
/* pixels */
"                                                                                                                                                                ",
"                                                                                                                                                                ",
"                                                                                                                                                                ",
"                                                                                                                                                                ",
"                                                                                                                                                                ",
"                                                                                                                                                                ",
"                                                                                                                                                                ",
"                                                                                                                                                                ",
"                                    , # @ # # # # +                                                                                                             ",
"                              6 r 7 7 r , 8 t q 8 , @ X O =                                                                                                     ",
"                            5 8 f t 7 7 t k i t 8 8 * . . . . o O = = &                                                                                         ",
"                          e t z z t , 7 i f t r 5 8 % . . X . . . . . o : ^                                                                                     ",
"                        b 8 f I Z M t i z k u 7 7 > O . o O . X . . . O * w n {.                                                                                ",
"                    2 a a 8 i z Y C y y k f u 0 q 2 O O O O O o o o X O * r u ^ [.                                                                              ",
"                @ X # < 7 r t i V I f j x y d 0 3 2 & % $ % = $ $ $ $ $ - q n h.[.                                                                              ",
"                X X + , 8 t i z v v v v I z z p 9 9 6 1 1 1 & & % & & = 2 0 n / / m                                                                             ",
"                X . @ < t i f n Q Q Q Q k.R R m d a p e 6 3 1 2 3 1 % $ & 1 3 q i i i i                                                                         ",
"                X X X > s c C 1.'.V.V.].4X].'.k.E z g z g a 6 9 w 9 3 1 1 1 3 9 u t u u j                                                                       ",
"                X . X * 8 Z  .A.4X].].4X6X6X6X].V.<.E I E R n w 9 p x h h q 0 p i y y y l ! X.6.                                                                ",
"                X . X % 5 j #.C.`.4X4X4X6X6X6X].A.k.1.1.8.8.R g p z 6.9.W V j k f k l c U 5.8.7.8.V.'.#X'.A.z.[                                                 ",
"                  . . $ 1 9 l <.8.6.k.V.'.'.V.z.A.#XA.8.7.4.E a k S 5.N.7.W V v V C C I T T T Q <.a.V.`.`.@X@Xx.'                                               ",
"                  . . o % 3 9 d z ~ Q k.k.k.2.1.A.@X`.z.7.7.Q c v S ..w.1.! ! ..] W U C I v v I Q 5.z.'.`.@X#XZ.S.`.                                            ",
"                o . o O $ 1 1 3 t g E 8.k.8.1.k.C.`.A.k.1.1...S Z L ` J B B ! ] X.X.W S M c M C T Q 8.V.'.`.|._._.|.|.                                          ",
"                O + % % % 1 1 1 3 a M Q Q Q 1.8.8.A.A.4.1...! ! ..] P S J L ] 4.7.5.! ! J B B B A Q  .z.c.C.c.z.B.#X@X@X                                        ",
"                - < > ; * 1 3 3 e e p d c C Q 5.7.z.A.c.7.2.2.X.{ L L ( ( L [ Z.S.4.{ { L P J J J L ] 2.2.2.2.2.7.B.@X7X5X                                      ",
"                  < > ; ; 1 6 w e e 6 e d c U Q 8.`.*X|.A.7.1.{ [ | %.' ' [ u..Xb.o.' K L X.4.o.[ ` X.{ [ 3.w.i.a.m.`.@X#X@X                                    ",
"                  < > ; ; 3 q d g g h f v Q Q <.C._.A..X|.A.c.c.a.*.=.t.f.w.i.n.q.O.} 3.w.p.M.b.p.2.+.2.w.f.p.m.p.Z.S.S.A.|.`.                                  ",
"                  < > - 4 0 d x A W A Z U U T  .1.<.X.x..X_._.Z.p.x.f.f.b.i.w.0.0.&.q.W.}. XOX}.T.p.p.p.b.i.*.w.b.p.i.f.x.C.`.                                  ",
"                  , r 7 0 u j Z _ 2.2.4.u._ A Y  . .R r.M.x.u.c.S. XOXZ.b.e.0.&.q.y.d.I.oXOX+X:X%XW.n.n.f.w.&.O.@.w.r.e.g.T.$X#X                                ",
"                    8 y y k v Y +.i.u.m.C.w._ A Y Y _ $.i.0.2.u.Z.XX5X%Xg.s.O.o.=.H.Q.J.Q.^.oX:X+X!.!.L.=.&.&.&.*.o.} i.T.W.}.|.                                ",
"                      j c A J ] +.3.w.w.w.0.U c V _ $.r.i.w.u.T.OX*XOX+X!.t.( K ' J.^.U.^.=X~.-X-X=X~.Y.J.G.:.%.&.| } r.*.*.W.$X|.                              ",
"                        D ] #.a.4.w.2.o.` ` Z s V $.g.I.n.g.}.5XyX0XXXXXL.y.0.*.=.^.>X>X-X-XoX>X<XeXwX-X).Y.G.;.;.;.-.L.f.| i.XX X                              ",
"                        5.8.N.|.|.Z.+.o.+.] A S _ r.R.%X:X%XtXdXdXdX:X+XQ.Y.I.R.~.:XwXwX:X:X>X9XeXwXeXiX2X3X/.K.G.;.-.d.f.| | i.E.|.                            ",
"                        F.|.@X|. XW.i.+.i.o.' *.U.:XaXkXgXgXgXgXgXgXwXqX9X<X9XpXpXuXuXwX>X(.).-XiXdXwXwX1X1X1X/.K.>.y.d.s.*.' o.f.C.v.                          ",
"                        8.m.n.b.i.0.@.} [ ' [ g.-XiXhXlXhXdXkXkXkXhXfXaXfXpXgXlXfXpXfXaX2X)./.;XrXiXrXrX1X1XrX3X3X;X~.I.f.0.@.@.0.4.7.                          ",
"                        | ' o.u.f.u.+.i.n.+.o.T.W.^.wXpXtXdXlXlXlXhXgXhXkXlXkXkXkXaXfXlXfXiXiXrXwX1X2XiXfXfXhXiX1XrXwX<X!.f.w.r.3.+.#.                          ",
"                      ' ' ' ' O.w.M.f.T.W.p.e.i.e.R.tX9X8XdXlXkXfXfXfXlXlXxXxXlXlXfXuXiXiXaXhXaXrXaXhXkXkXlXhXfXrX<X2X:X+XT.n.e.i.w.2.                          ",
"                      ) } ' ' @.f.M.M.%X+Xs.T.:X%X8XyXdXdXgXkXkXfXaXiXhXxXxXlXxXxXhXuX<XeXhXkXgXhXxXcXxXxXlXkXfXiX<X>X-XQ.I.P.n.n.N.6.                          ",
"                      &.O.o.o.g.T.XX+XXXP.u.P.pXpXyX8X,XpXgXhXkXhXfXfXlXcXcXcXxXxXkXhXgXkXhXxXcXcXcXbXxXcXxXlXhXeXwXwX-XoX+XXXn.T.E.l.                          ",
"                      J.R.L.i.W.T.P.R.i.o.| g.eXaX9XXX+XyXgXhXhXhXhXlXcXbXbXcXcXlXlXlXlXlXxXcXcXbXcXbXcXcXlXhXfXiX>XuX(.~.+X+Xn.n.T.l.                          ",
"                      Y.(.oXs.i.i.@.} o.o.[ s.+XwXiXtXyXgXdXfXaXhXhXlXbXnXnXbXcXcXxXxXlXxXbXbXbXbXcXxXkXkXlXkXhXaX>XqX<X-X,X+XT.s.N.j.                          ",
"                      >.Y.+XoXP.s.O.( K { 0.O.=.I.,X9XtX0XiXfXfXkXlXcXnXnXnXnXbXbXcXcXcXcXbXbXbXbXcXkXaXrXkXxXlXaX;XqXpX<X,XOXW.f.p.6.                          ",
"                        J.I.-XW.R.n.@.K ' 0.&.e.=.t.y.y.J.(.rXgXcXcXbXnXnXnXnXnXnXbXcXcXcXbXbXbXnXnXcXlXlXxXkXaXaXuXqXpX<XQ.I.f.b.f.6.                          ",
"                        ).oX!.b.M.n.i.3.o.q.s.t.%.;.;.=.y.Y.;XfXbXbXnXnXnXnXnXnXnXbXbXcXbXbXbXcXcXnXbXbXbXxXkXhXfXaXpXuXqX^.d.q.i.f.z.                          ",
"                        /.3X2X:XR.R.W.W.f.i.d.J.G.y.K.Q.~.Y.1XkXcXbXnXnXnXnXnXnXnXnXbXcXbXbXnXbXbXbXbXnXbXcXxXxXlXhXdXpX:XU.=.O.o.5.6.                          ",
"                          (.1XrXrXwX:XT.f.g.g.U.G.:.J.^.-X9XiXhXlXbXbXnXnXnXnXnXnXnXbXbXcXcXbXnXnXbXbXnXbXcXcXcXcXlXkXdX+Xt.` ` _ 2.                            ",
"                          K.I.R.R.P.n.P.f.P.g.-.-.%.G.>XwXgXaXaXhXcXbXnXnXnXnXnXnXnXnXbXcXcXcXbXnXnXnXbXbXcXcXxXlXkXhXtX^.d.#.S _ a.                            ",
"                          ;.| O.q.i.n.P.XX+XXXR.d.-.;.Y.iXaXaXgXlXbXnXnXnXnXnXnXnXnXnXnXbXcXcXbXnXnXnXnXnXbXcXlXhXhXfXaX9XR.r._ <.h.                            ",
"                            :.L.P.P.g.XX,X+XoX+X:XI.;.(.pXpXhXxXcXbXnXnXnXnXnXnXnXnXnXnXbXcXcXbXbXnXnXnXnXbXcXxXlXfXpXpXyX&Xf.5.9.                              ",
"                            :.U.n.P.n.oX<X:X>X9XiX>XoXrXfXfXhXlXbXnXbXnXnXnXnXnXnXnXnXbXbXcXcXbXbXnXbXnXnXbXcXcXkXpXpXdXgXtX.XB.h.                              ",
"                            ) y.P.g.g.P.R.oX2XrXeX9X2XrXpXiXuXwXxXnXnXbXnXnXnXnXnXbXbXcXcXxXcXbXbXnXnXnXnXbXxXlXzXpXpXdXgX0X$X_.                                ",
"                              G.I.3.e.n.XXP.+X9X:X:X<XqXuX9X:X9XzXbXbXnXnXnXnXnXbXcXcXcXcXxXcXbXbXnXnXbXbXbXxXlXgXpXtXdXgX5X#X`.                                ",
"                            ) %.U.r.*.!.-XP.+X+XR.!.>X:X-X:X,XqXgXlXcXbXcXcXcXcXcXxXvXcXcXxXcXbXnXnXnXnXbXbXxXdXwXtX0XtXtX*XD.                                  ",
"                            D ) q.s.e.I.<X<X+Xn.r.=.U.I.I.XX0XtXfXgXzXgXdXyXdXdXzXdXkXcXcXxXxXcXbXnXbXnXbXbXlXpX9XqXtX&X#XD.A.                                  ",
"                            N D ( r.g.W.XX+X+X+XoXH.d.d.y.W.tXdXtXpXgXpXtXtXtXtXpXdXlXzXlXxXxXcXcXbXbXbXcXxXlXyX:X%X8X*X X_.                                    ",
"                            F D F ( @.e.n.!.XX:X<X9X+XoX,XyX9XqXqXpXyXtXqX8XtXyXdXgXgXgXgXlXlXxXxXcXcXcXcXxXlXyX+XOX$X X$X#X                                    ",
"                              H G G G H g.+XW.XX!.:XqXpXpXqX%X:X8X8XtXtX+XQ.,X0XdXzXgXpXdXpXdXgXgXlXxXxXcXvXzXsX5X X`.`.|.                                      ",
"                                G F G ( d.-X+XXXOX&X8X,X,X:X+XY.~.,X0X0XXXy.I.9XdXzXgXpXdXdXyXdXgXzXvXmXmXmXjXsX7X|.'.'.                                        ",
"                                H G G ) ( +.p.x.S.}.}.XX!.%X9X>XY.oX5XOXW.U.P.!.:XuXyXuXyX0X8XtX0XyXjXjXjXjXsXMX4X#XF.                                          ",
"                                    G H G H ] u.M.M.R.L.L.!.,X9X8X,X<XoX!.Q.H.n.L.,X8X,X&XXX%X%X$X*X5X5X4X4X6X6X5X[.                                            ",
"                                      F F F K u.M.n.XXR.XX,X:X!.R.!.:X+XQ.Q.oXR.R.,X+XXXXXW.E.W.E..X|._._.`.`.#X                                                ",
"                                          F F L r.i.f.}.*X%X+XW.I.W.:X+XXX:XqX9X+XXXXXR.R.T.Z.S.A.A.D.B.B.                                                      ",
"                                              D K 7.a.D._.|.$X}.R.W.+X&X&X8X0X&XXXR.L.M.m.m.N.c.c.B.v.                                                          ",
"                                                      B.B.A._.E.E.E. X@X$X$X$X XW.T.f.f.i.z.z.v.k.                                                              ",
"                                                          8.4.u.x.D._.'.D.F.D.D.N.x.u.5.5.                                                                      ",
"                                                                  z.B.F.l.j.j.9.R                                                                               ",
"                                                                                                                                                                ",
"                                                                                                                                                                ",
"                                                                                                                                                                ",
"                                                                                                                                                                ",
"                                                                                                                                                                ",
"                                                                                                                                                                ",
"                                                                                                                                                                ",
"                                                                                                                                                                ",
"                                                                                                                                                                ",
"                                                                                                                                                                ",
"                                                                                                                                                                ",
"                                                                                                                                                                ",
"                                                                                                                                                                ",
"                                                                                                                                                                "
};
