/* XPM */
static char *bdad633552c74f46938203ee87e9682fAPIk5GynF9rjfUqK[] = {
/* columns rows colors chars-per-pixel */
"80 80 211 2 ",
"   c None",
".  c #CA7E4D",
"X  c #CB8047",
"o  c #CB8247",
"O  c #CB8249",
"+  c #CC8349",
"@  c #CC834A",
"#  c #CC8548",
"$  c #CC8549",
"%  c #CC854A",
"&  c #CB814C",
"*  c #CD884B",
"=  c #CE8A4D",
"-  c #CF8C4C",
";  c #CF8D4D",
":  c #D0904D",
">  c #CD8552",
",  c #CD8652",
"<  c #CD8656",
"1  c #CE8956",
"2  c #CE8859",
"3  c #D18F5D",
"4  c #D08E5F",
"5  c #D29451",
"6  c #D29553",
"7  c #D29454",
"8  c #D49A51",
"9  c #D49955",
"0  c #D49B56",
"q  c #D59F57",
"w  c #D2935E",
"e  c #D4995A",
"r  c #D7A355",
"t  c #D6A159",
"y  c #D6A25B",
"u  c #D7A25E",
"i  c #D8A55B",
"p  c #D8A75B",
"a  c #D9A75D",
"s  c #D8A65F",
"d  c #D9A85C",
"f  c #D9A85D",
"g  c #DCB25F",
"h  c #D49762",
"j  c #D69D64",
"k  c #D69E64",
"l  c #D59A69",
"z  c #D19C78",
"x  c #D8A565",
"c  c #D9A960",
"v  c #DBAE62",
"b  c #DAAC64",
"n  c #D7A069",
"m  c #D7A06D",
"M  c #D8A36E",
"N  c #D8A26F",
"B  c #DBAC6D",
"V  c #DEB663",
"C  c #DEB569",
"Z  c #DEB668",
"A  c #DFB76B",
"S  c #D8A170",
"D  c #D9A472",
"F  c #DAA773",
"G  c #DAA774",
"H  c #DAA871",
"J  c #DAA972",
"K  c #DBAB75",
"L  c #DAA876",
"P  c #DBAA78",
"I  c #DEB772",
"U  c #E0BB6D",
"Y  c #E1BE6F",
"T  c #E0B971",
"R  c #E0B979",
"E  c #E0BA79",
"W  c #E3C274",
"Q  c #E4C478",
"!  c #E4C679",
"~  c #E5C97B",
"^  c #E5C97C",
"/  c #E6C97E",
"(  c #E6CB7E",
")  c #DDAF80",
"_  c #DCB08E",
"`  c #E2BD85",
"'  c #E3BE8A",
"]  c #E4BE97",
"[  c #D2BEA4",
"{  c #E3C087",
"}  c #E7CE80",
"|  c #E7CC82",
" . c #E7CD83",
".. c #E4C08E",
"X. c #E5C58E",
"o. c #E7CC88",
"O. c #E8CD8E",
"+. c #E9D188",
"@. c #E9D288",
"#. c #EAD38D",
"$. c #E6C791",
"%. c #E5C593",
"&. c #E5C396",
"*. c #E7C897",
"=. c #E8CB97",
"-. c #E7C89F",
";. c #E9CE9A",
":. c #EAD492",
">. c #EDDB99",
",. c #DAC7AF",
"<. c #DDCDB4",
"1. c #DDCCB6",
"2. c #EAD1A2",
"3. c #ECD5A5",
"4. c #ECD5A7",
"5. c #EFDFA7",
"6. c #ECD5AF",
"7. c #EDD7AF",
"8. c #EEDBA8",
"9. c #E5CAB3",
"0. c #EED9B2",
"q. c #EED8B3",
"w. c #F0E2A5",
"e. c #F0E0A8",
"r. c #F1E5AB",
"t. c #F2E6AD",
"y. c #F1E4B0",
"u. c #F2E7B0",
"i. c #F2E4B8",
"p. c #F1E2BC",
"a. c #F2E3BC",
"s. c #F2E6BF",
"d. c #F3E8B9",
"f. c #F4EABA",
"g. c #E9D8C5",
"h. c #F3E7C2",
"j. c #F4E9C1",
"k. c #F6EFC0",
"l. c #F6EEC1",
"z. c #F4E8C7",
"x. c #F5EBC6",
"c. c #F6EFC4",
"v. c #F3E6CB",
"b. c #F4E7CD",
"n. c #F7F0C5",
"m. c #F8F1C9",
"M. c #F9F5CF",
"N. c #EDE5D5",
"B. c #EFE7D9",
"V. c #F1E3D2",
"C. c #F9F3D1",
"Z. c #FAF6D5",
"A. c #FAF7D5",
"S. c #FAF6D6",
"D. c #FAF6D7",
"F. c #FAF6D8",
"G. c #FAF7DE",
"H. c #FBF8DF",
"J. c #F8F1E2",
"K. c #F9F3E2",
"L. c #F8F0E4",
"P. c #FBF7E7",
"I. c #FCFAE5",
"U. c #FCFBE6",
"Y. c #FDFCE7",
"T. c #FAF3E8",
"R. c #FBF6EB",
"E. c #FBF7EB",
"W. c #FBF8E8",
"Q. c #FBF8E9",
"!. c #FCF9EB",
"~. c #FCFAEB",
"^. c #FCFBEB",
"/. c #FDFCE8",
"(. c #FDFCEB",
"). c #FCFAED",
"_. c #FDFBED",
"`. c #FCF9EE",
"'. c #FDFBEE",
"]. c #FDFBEF",
"[. c #FDFCEC",
"{. c #FDFDEE",
"}. c #FCFAF0",
"|. c #FEFDF1",
" X c #FEFDF2",
".X c #FEFEF3",
"XX c #FDFCF4",
"oX c #FDFCF5",
"OX c #FEFDF4",
"+X c #FEFCF6",
"@X c #FEFDF6",
"#X c #FEFDF7",
"$X c #FEFEF6",
"%X c #FEFEF7",
"&X c #FFFEF7",
"*X c #FEFDF9",
"=X c #FEFEF8",
"-X c #FFFEF8",
";X c #FFFEF9",
":X c #FEFDFB",
">X c #FFFFFA",
",X c #FEFEFB",
"<X c #FFFEFB",
"1X c #FFFFFB",
"2X c #FEFDFC",
"3X c #FEFEFC",
"4X c #FFFFFC",
"5X c #FFFEFD",
"6X c #FFFFFD",
"7X c #FFFFFE",
"8X c white",
/* pixels */
"                                                                                                                                                                ",
"                                                                                                                                                                ",
"                                                                                                                                                                ",
"                                                                                                                                                                ",
"                                                                                                                                                                ",
"                                                                                                                                                                ",
"                                                                                                                                                                ",
"                                                                                                                                                                ",
"                                                                                                                                                                ",
"                                                                                                                                                                ",
"                                                                                                                                                                ",
"                                                                                                                                                                ",
"                                                                                                                                                                ",
"                                                                                                                                                                ",
"                                                                                                                                                                ",
"                                                                                                                                                                ",
"                                                                                                                                                                ",
"                                                                                                                                                                ",
"                                                                                                                                                                ",
"                                                                                                                                                                ",
"                                                                                                                                                                ",
"                                                                                                                                                                ",
"                                                                                                                                                                ",
"                                                                                                                                                                ",
"                                                                                                                                                                ",
"                                                                                                                                                                ",
"                                                                                                                                                                ",
"                                                                                                                                                                ",
"                                                                                                                                                                ",
"                                                              < 4                                                                                               ",
"                                                            & w J j     % = O       [                                                                           ",
"                                                            , h R T 7 9 s c 9 %   <.<.                                                                          ",
"                                                              3 { e.R Z W / A 5 z N.,.                                                                          ",
"                                                                %.G.j. .@.u.:.y 9.N.                                                                            ",
"                                                                ..).).y.w.S.f.I V.g.                                                                            ",
"                                                                ) E.5X!.m./.S.8.P._                                                                             ",
"                                                                l P.5X;XU. X[.!.K.x                                                                             ",
"                                                                e v.5X5X%X;X;X;Xi.g                                                                             ",
"                                                              + y $.W.;X5X5X5X Xr.V                                                                             ",
"                                                              ; p ~ n.[.5X5X5X%Xk.U                                                                             ",
"                                                              ; d ( f./.5X5X5X;XM.Q #                                                                           ",
"                                                              ; d ( n./.;X5X5X;XA. .:                                                                           ",
"                                                              * p ~ n./.;X5X5X;XZ. .8                                                                           ",
"                                                                y A 5.%X;X5X5X5XH.@.r X                                                                         ",
"                                                                5 b p.2X;X;X%X5X%Xa.p %                                                                         ",
"                                                                  P R.;X*X%X;X5X5XK.B X                                                                         ",
"                                                                  &.`.5X*X X5X%X).%X*.+                                                                         ",
"                                                                  -.}.5XE.C. XS.d.%Xz.J                                                                         ",
"                                                                  7.%X%X3.#.t.>.o.E.W.2.G                                                                       ",
"                                                                l 7.).b.k s Z v u 0.!.h.`                                                                       ",
"                                                              1 N 3.x.&.    O     m 0.s.;.N                                                                     ",
"                                                              , n %.=.                ' X.D                                                                     ",
"                                                              . h K L                   L                                                                       ",
"                                                                2                                                                                               ",
"                                                                                                                                                                ",
"                                                                                                                                                                ",
"                                                                                                                                                                ",
"                                                                                                                                                                ",
"                                                                                                                                                                ",
"                                                                                                                                                                ",
"                                                                                                                                                                ",
"                                                                                                                                                                ",
"                                                                                                                                                                ",
"                                                                                                                                                                ",
"                                                                                                                                                                ",
"                                                                                                                                                                ",
"                                                                                                                                                                ",
"                                                                                                                                                                ",
"                                                                                                                                                                ",
"                                                                                                                                                                ",
"                                                                                                                                                                ",
"                                                                                                                                                                ",
"                                                                                                                                                                ",
"                                                                                                                                                                ",
"                                                                                                                                                                ",
"                                                                                                                                                                ",
"                                                                                                                                                                ",
"                                                                                                                                                                ",
"                                                                                                                                                                ",
"                                                                                                                                                                "
};
